G04 Layer_Color=32768*
%FSTAX24Y24*%
%MOIN*%
G70*
G01*
G75*
%ADD82C,0.0039*%
%ADD169C,0.0020*%
D82*
X279134Y193504D02*
X279528D01*
X279331Y193307D02*
Y193701D01*
X278731Y192194D02*
Y194814D01*
X279891Y192194D02*
Y194814D01*
X278731Y192194D02*
X279891D01*
X278731Y194814D02*
X279891D01*
X26437Y177756D02*
Y17815D01*
X264173Y177953D02*
X264567D01*
X263169Y177264D02*
X265571D01*
X263169Y178642D02*
X265571D01*
Y177264D02*
Y178642D01*
X263169Y177264D02*
Y178642D01*
X279134Y186024D02*
X279528D01*
X279331Y185827D02*
Y18622D01*
X279931Y184714D02*
Y187334D01*
X278771Y184714D02*
Y187334D01*
X279931D01*
X278771Y184714D02*
X279931D01*
X279134Y188681D02*
X279528D01*
X279331Y188484D02*
Y188878D01*
X278731Y187371D02*
Y189991D01*
X279891Y187371D02*
Y189991D01*
X278731Y187371D02*
X279891D01*
X278731Y189991D02*
X279891D01*
X267126Y175591D02*
X26752D01*
X267323Y175394D02*
Y175787D01*
X259449Y175591D02*
X259843D01*
X259646Y175394D02*
Y175787D01*
X259046Y174281D02*
Y176901D01*
X260206Y174281D02*
Y176901D01*
X259046Y174281D02*
X260206D01*
X259046Y176901D02*
X260206D01*
X257244Y174252D02*
Y174646D01*
X257047Y174449D02*
X257441D01*
X256144Y174872D02*
X258344D01*
X256144Y174026D02*
X258344D01*
X256144D02*
Y174872D01*
X258344Y174026D02*
Y174872D01*
X25315Y18061D02*
Y181004D01*
X252953Y180807D02*
X253346D01*
X25205Y180384D02*
X25425D01*
X25205Y18123D02*
X25425D01*
Y180384D02*
Y18123D01*
X25205Y180384D02*
Y18123D01*
X256201Y183366D02*
Y18376D01*
X256004Y183563D02*
X256398D01*
X255443Y184252D02*
X257185D01*
X255443Y182874D02*
X257185D01*
X255443D02*
Y184252D01*
X257185Y182874D02*
Y184252D01*
X256496Y179724D02*
X25689D01*
X256693Y179528D02*
Y179921D01*
X257293Y178414D02*
Y181034D01*
X256133Y178414D02*
Y181034D01*
X257293D01*
X256133Y178414D02*
X257293D01*
X25502Y179724D02*
X255413D01*
X255217Y179528D02*
Y179921D01*
X254617Y178414D02*
Y181034D01*
X255777Y178414D02*
Y181034D01*
X254617Y178414D02*
X255777D01*
X254617Y181034D02*
X255777D01*
X267421Y193799D02*
X267815D01*
X267618Y193602D02*
Y193996D01*
X270256Y191161D02*
Y196437D01*
X26498Y191161D02*
Y196437D01*
X270256D01*
X26498Y191161D02*
X270256D01*
X262992Y185433D02*
X263386D01*
X263189Y185236D02*
Y18563D01*
X2625Y184675D02*
Y186417D01*
X263878Y184675D02*
Y186417D01*
X2625Y184675D02*
X263878D01*
X2625Y186417D02*
X263878D01*
D169*
X276063Y185098D02*
Y185965D01*
X274331Y185098D02*
Y185965D01*
Y185098D02*
X276063D01*
X274331Y185965D02*
X276063D01*
X281063Y189547D02*
X281929D01*
X281063Y187815D02*
X281929D01*
Y189547D01*
X281063Y187815D02*
Y189547D01*
Y184626D02*
X281929D01*
X281063Y182894D02*
X281929D01*
Y184626D01*
X281063Y182894D02*
Y184626D01*
X281063Y194468D02*
X281929D01*
X281063Y192736D02*
X281929D01*
Y194468D01*
X281063Y192736D02*
Y194468D01*
M02*
