G04 Layer_Color=8388736*
%FSTAX24Y24*%
%MOIN*%
G70*
G01*
G75*
%ADD98R,0.0454X0.0474*%
%ADD99R,0.0592X0.0580*%
%ADD100R,0.0474X0.0454*%
%ADD101R,0.0552X0.0552*%
%ADD102R,0.0592X0.0671*%
%ADD103R,0.0690X0.0671*%
%ADD104R,0.0630X0.0580*%
%ADD105R,0.0671X0.0592*%
%ADD106R,0.0730X0.0680*%
%ADD107C,0.0671*%
%ADD108R,0.0946X0.0690*%
%ADD109R,0.0552X0.0552*%
%ADD110R,0.0980X0.0980*%
%ADD111R,0.1434X0.0678*%
%ADD112R,0.0671X0.0237*%
%ADD113R,0.2009X0.1084*%
%ADD114R,0.0336X0.0474*%
%ADD115R,0.0552X0.0730*%
%ADD116R,0.0178X0.0474*%
%ADD117R,0.0178X0.0474*%
%ADD118R,0.0867X0.0474*%
%ADD119R,0.0474X0.0395*%
%ADD120R,0.0580X0.0592*%
%ADD121R,0.0690X0.0316*%
%ADD122R,0.0867X0.1261*%
%ADD123R,0.0395X0.1064*%
%ADD124R,0.1064X0.0395*%
%ADD125R,0.0552X0.0415*%
G04:AMPARAMS|DCode=126|XSize=45.4mil|YSize=47.4mil|CornerRadius=0mil|HoleSize=0mil|Usage=FLASHONLY|Rotation=45.000|XOffset=0mil|YOffset=0mil|HoleType=Round|Shape=Rectangle|*
%AMROTATEDRECTD126*
4,1,4,0.0007,-0.0328,-0.0328,0.0007,-0.0007,0.0328,0.0328,-0.0007,0.0007,-0.0328,0.0*
%
%ADD126ROTATEDRECTD126*%

G04:AMPARAMS|DCode=127|XSize=45.4mil|YSize=47.4mil|CornerRadius=0mil|HoleSize=0mil|Usage=FLASHONLY|Rotation=315.000|XOffset=0mil|YOffset=0mil|HoleType=Round|Shape=Rectangle|*
%AMROTATEDRECTD127*
4,1,4,-0.0328,-0.0007,0.0007,0.0328,0.0328,0.0007,-0.0007,-0.0328,-0.0328,-0.0007,0.0*
%
%ADD127ROTATEDRECTD127*%

%ADD128O,0.0789X0.0198*%
%ADD129O,0.0198X0.0789*%
%ADD130R,0.0316X0.0690*%
%ADD131R,0.0530X0.1064*%
%ADD132R,0.1261X0.2442*%
%ADD133R,0.0671X0.0277*%
%ADD134R,0.0720X0.0720*%
%ADD135C,0.0720*%
%ADD136C,0.0867*%
%ADD137R,0.1064X0.1064*%
%ADD138R,0.1064X0.1064*%
%ADD139C,0.0730*%
%ADD140C,0.2049*%
%ADD141O,0.0781X0.1580*%
%ADD142O,0.1580X0.0781*%
%ADD143P,0.1188X4X90.0*%
%ADD144C,0.0840*%
%ADD145C,0.0966*%
G04:AMPARAMS|DCode=146|XSize=71mil|YSize=71mil|CornerRadius=35.5mil|HoleSize=0mil|Usage=FLASHONLY|Rotation=90.000|XOffset=0mil|YOffset=0mil|HoleType=Round|Shape=RoundedRectangle|*
%AMROUNDEDRECTD146*
21,1,0.0710,0.0000,0,0,90.0*
21,1,0.0000,0.0710,0,0,90.0*
1,1,0.0710,0.0000,0.0000*
1,1,0.0710,0.0000,0.0000*
1,1,0.0710,0.0000,0.0000*
1,1,0.0710,0.0000,0.0000*
%
%ADD146ROUNDEDRECTD146*%
%ADD147R,0.0671X0.0671*%
%ADD148O,0.0680X0.0980*%
%ADD149R,0.0680X0.0980*%
%ADD150C,0.0710*%
%ADD151O,0.0710X0.1891*%
D98*
X256496Y194862D02*
D03*
Y195492D02*
D03*
X255512Y194862D02*
D03*
Y195492D02*
D03*
X260138Y195492D02*
D03*
Y194862D02*
D03*
X25935Y194862D02*
D03*
Y195492D02*
D03*
X260925Y194862D02*
D03*
Y195492D02*
D03*
X25502Y175669D02*
D03*
Y176299D02*
D03*
X262894Y182402D02*
D03*
Y181772D02*
D03*
X282972Y188366D02*
D03*
Y188996D02*
D03*
X282283Y188996D02*
D03*
Y188366D02*
D03*
X280709Y188996D02*
D03*
Y188366D02*
D03*
X282972Y183445D02*
D03*
Y184075D02*
D03*
X282283D02*
D03*
Y183445D02*
D03*
X280709Y184075D02*
D03*
Y183445D02*
D03*
X282972Y193287D02*
D03*
Y193917D02*
D03*
X282283Y193917D02*
D03*
Y193287D02*
D03*
X280709Y193917D02*
D03*
Y193287D02*
D03*
X258465Y177638D02*
D03*
Y178268D02*
D03*
X257677Y177638D02*
D03*
Y178268D02*
D03*
X25502Y17439D02*
D03*
Y17502D02*
D03*
X252362Y194862D02*
D03*
Y195492D02*
D03*
X253051Y194862D02*
D03*
Y195492D02*
D03*
X257441Y194843D02*
D03*
Y195472D02*
D03*
X254331Y20248D02*
D03*
Y20185D02*
D03*
X260433Y20248D02*
D03*
Y20185D02*
D03*
X258268Y20248D02*
D03*
Y20185D02*
D03*
X262205Y202382D02*
D03*
Y201752D02*
D03*
X262894Y201752D02*
D03*
Y202382D02*
D03*
Y200374D02*
D03*
Y201004D02*
D03*
X265157Y201752D02*
D03*
Y202382D02*
D03*
X264468Y201752D02*
D03*
Y202382D02*
D03*
X263189Y190669D02*
D03*
Y190039D02*
D03*
X263976Y190039D02*
D03*
Y190669D02*
D03*
X266929Y183681D02*
D03*
Y183051D02*
D03*
X270669Y183051D02*
D03*
Y183681D02*
D03*
X266831Y188268D02*
D03*
Y188898D02*
D03*
X264665Y188268D02*
D03*
Y188898D02*
D03*
X271811Y191535D02*
D03*
Y192165D02*
D03*
X270512Y189449D02*
D03*
Y190079D02*
D03*
X27313Y201752D02*
D03*
Y202382D02*
D03*
D99*
X274821Y183172D02*
D03*
X275569D02*
D03*
X277084Y187995D02*
D03*
X277833Y187995D02*
D03*
X277084Y193113D02*
D03*
X277833D02*
D03*
X261041Y177759D02*
D03*
X261789D02*
D03*
X253364Y1752D02*
D03*
X254112D02*
D03*
X249409Y184449D02*
D03*
X248228D02*
D03*
D100*
X275512Y183957D02*
D03*
X274882D02*
D03*
X275512Y184646D02*
D03*
X274882Y184646D02*
D03*
X282264Y187106D02*
D03*
X282894D02*
D03*
X282264Y182185D02*
D03*
X282894D02*
D03*
X282264Y192028D02*
D03*
X282894D02*
D03*
X265039Y176772D02*
D03*
X265669D02*
D03*
X263661Y174409D02*
D03*
X264291D02*
D03*
X265039D02*
D03*
X265669D02*
D03*
X263661Y176772D02*
D03*
X264291D02*
D03*
X25248Y175197D02*
D03*
X25185D02*
D03*
X247815Y182165D02*
D03*
X247185D02*
D03*
X247815Y182854D02*
D03*
X247185Y182854D02*
D03*
X247815Y183543D02*
D03*
X247185Y183543D02*
D03*
X249134Y183563D02*
D03*
X248504D02*
D03*
X254843D02*
D03*
X254213D02*
D03*
X258484Y183957D02*
D03*
X257854D02*
D03*
X253031Y196358D02*
D03*
X253661D02*
D03*
X274134Y190787D02*
D03*
X273504D02*
D03*
X262874Y186811D02*
D03*
X263504D02*
D03*
X263504Y187795D02*
D03*
X262874D02*
D03*
X263504Y188484D02*
D03*
X262874D02*
D03*
D101*
X275768Y185532D02*
D03*
X274626Y185532D02*
D03*
D102*
X277084Y190751D02*
D03*
X277833D02*
D03*
D103*
X279331Y194213D02*
D03*
Y192795D02*
D03*
Y185315D02*
D03*
Y186732D02*
D03*
Y18939D02*
D03*
Y187972D02*
D03*
X259646Y176299D02*
D03*
Y174882D02*
D03*
X256693Y179016D02*
D03*
Y180433D02*
D03*
X255217D02*
D03*
Y179016D02*
D03*
D104*
X261044Y182537D02*
D03*
Y181637D02*
D03*
D105*
X262011Y182561D02*
D03*
Y181813D02*
D03*
X2502Y183545D02*
D03*
Y182797D02*
D03*
X271302Y19014D02*
D03*
Y189392D02*
D03*
D106*
X283858Y194312D02*
D03*
Y193012D02*
D03*
X283957Y184469D02*
D03*
X283957Y183169D02*
D03*
Y189391D02*
D03*
Y188091D02*
D03*
D107*
X263086Y173919D02*
D03*
X255212Y181694D02*
D03*
X263972Y182383D02*
D03*
X271654Y175591D02*
D03*
X267515Y177954D02*
D03*
X261019Y178742D02*
D03*
X251767Y174312D02*
D03*
X254129D02*
D03*
X248499Y181596D02*
D03*
X27618Y181885D02*
D03*
X277953Y196079D02*
D03*
Y197079D02*
D03*
Y198079D02*
D03*
Y199079D02*
D03*
Y200079D02*
D03*
D108*
X262795Y177953D02*
D03*
X265945D02*
D03*
D109*
X281496Y189252D02*
D03*
X281496Y18811D02*
D03*
X281496Y184331D02*
D03*
X281496Y183189D02*
D03*
X281496Y194173D02*
D03*
X281496Y193032D02*
D03*
D110*
X270782Y177165D02*
D03*
X268982D02*
D03*
D111*
X267323Y176364D02*
D03*
Y174817D02*
D03*
D112*
X26378Y176063D02*
D03*
Y175807D02*
D03*
Y175551D02*
D03*
X26378Y175295D02*
D03*
X265551Y176063D02*
D03*
Y175807D02*
D03*
Y175551D02*
D03*
Y175295D02*
D03*
D113*
X261811Y176289D02*
D03*
Y174892D02*
D03*
D114*
X258445Y175669D02*
D03*
X258071D02*
D03*
X257697D02*
D03*
X258445Y176693D02*
D03*
X257697D02*
D03*
D115*
X256494Y174449D02*
D03*
X257994D02*
D03*
X2539Y180807D02*
D03*
X2524D02*
D03*
D116*
X252362Y177323D02*
D03*
X252953D02*
D03*
X252559D02*
D03*
Y17622D02*
D03*
X252756D02*
D03*
X252953D02*
D03*
X25315D02*
D03*
X252756Y177323D02*
D03*
X252362Y17622D02*
D03*
D117*
X25315Y177323D02*
D03*
D118*
X252756Y176772D02*
D03*
D119*
X256811Y175984D02*
D03*
X255787Y17561D02*
D03*
Y176358D02*
D03*
D120*
X253841Y179215D02*
D03*
Y178467D02*
D03*
D121*
X255837Y183563D02*
D03*
X256791Y183937D02*
D03*
Y183189D02*
D03*
D122*
X252756Y179035D02*
D03*
X251181D02*
D03*
X269783Y182579D02*
D03*
X269783Y184154D02*
D03*
X267815D02*
D03*
Y182579D02*
D03*
D123*
X260276Y192638D02*
D03*
X259803D02*
D03*
X259331D02*
D03*
X258858D02*
D03*
X258386D02*
D03*
X257913D02*
D03*
X257441D02*
D03*
X256968D02*
D03*
X256496D02*
D03*
X256024D02*
D03*
X255551D02*
D03*
X255079D02*
D03*
X254606D02*
D03*
X254134D02*
D03*
X253661D02*
D03*
X253189D02*
D03*
X252717D02*
D03*
X252244D02*
D03*
X251772D02*
D03*
X256024Y185827D02*
D03*
X251772D02*
D03*
X252244D02*
D03*
X252717D02*
D03*
X253189D02*
D03*
X253661D02*
D03*
X254134D02*
D03*
X254606D02*
D03*
X255079D02*
D03*
X255551D02*
D03*
X256496D02*
D03*
X256968D02*
D03*
X257441D02*
D03*
X257913D02*
D03*
X258386D02*
D03*
X258858D02*
D03*
X259331D02*
D03*
X259803D02*
D03*
X260276D02*
D03*
D124*
X26126Y186161D02*
D03*
Y186634D02*
D03*
Y187106D02*
D03*
Y187579D02*
D03*
Y188051D02*
D03*
Y188524D02*
D03*
Y188996D02*
D03*
Y189468D02*
D03*
Y189941D02*
D03*
Y190413D02*
D03*
Y190886D02*
D03*
Y191358D02*
D03*
Y191831D02*
D03*
Y192303D02*
D03*
X250787D02*
D03*
Y191831D02*
D03*
Y191358D02*
D03*
Y190886D02*
D03*
Y190413D02*
D03*
Y189941D02*
D03*
Y189468D02*
D03*
Y188996D02*
D03*
Y188524D02*
D03*
Y188051D02*
D03*
Y187579D02*
D03*
Y187106D02*
D03*
Y186634D02*
D03*
Y186161D02*
D03*
D125*
X253839Y195551D02*
D03*
X253841Y194807D02*
D03*
X254823Y195177D02*
D03*
D126*
X269954Y196581D02*
D03*
X2704Y196136D02*
D03*
X264836Y191463D02*
D03*
X265282Y191017D02*
D03*
D127*
X265282Y196581D02*
D03*
X264836Y196136D02*
D03*
X2704Y191463D02*
D03*
X269954Y191017D02*
D03*
D128*
X265433Y192323D02*
D03*
Y19252D02*
D03*
Y192717D02*
D03*
Y192913D02*
D03*
Y19311D02*
D03*
Y193307D02*
D03*
X265433Y193504D02*
D03*
Y193701D02*
D03*
X265433Y193898D02*
D03*
Y194094D02*
D03*
Y194291D02*
D03*
Y194488D02*
D03*
Y194685D02*
D03*
X265433Y194882D02*
D03*
Y195079D02*
D03*
X265433Y195276D02*
D03*
X269803Y195276D02*
D03*
Y195079D02*
D03*
Y194882D02*
D03*
Y194685D02*
D03*
Y194488D02*
D03*
Y194291D02*
D03*
Y194094D02*
D03*
Y193898D02*
D03*
Y193701D02*
D03*
Y193504D02*
D03*
Y193307D02*
D03*
X269803Y19311D02*
D03*
Y192913D02*
D03*
X269803Y192717D02*
D03*
Y19252D02*
D03*
Y192323D02*
D03*
D129*
X266142Y195984D02*
D03*
X266339Y195984D02*
D03*
X266535D02*
D03*
X266732Y195984D02*
D03*
X266929D02*
D03*
X267126D02*
D03*
X267323D02*
D03*
X26752D02*
D03*
X267717Y195984D02*
D03*
X267913D02*
D03*
X26811D02*
D03*
X268307Y195984D02*
D03*
X268504D02*
D03*
X268701D02*
D03*
X268898D02*
D03*
X269094D02*
D03*
Y191614D02*
D03*
X268898D02*
D03*
X268701D02*
D03*
X268504Y191614D02*
D03*
X268307D02*
D03*
X26811Y191614D02*
D03*
X267913D02*
D03*
X267717D02*
D03*
X26752D02*
D03*
X267323D02*
D03*
X267126D02*
D03*
X266929D02*
D03*
X266732D02*
D03*
X266535D02*
D03*
X266339D02*
D03*
X266142Y191614D02*
D03*
D130*
X263189Y185069D02*
D03*
X262815Y186024D02*
D03*
X263563D02*
D03*
D131*
X266256Y188976D02*
D03*
X265256D02*
D03*
D132*
X265756Y185827D02*
D03*
D133*
X275Y19161D02*
D03*
X272638Y19211D02*
D03*
Y19311D02*
D03*
X275Y19261D02*
D03*
Y19211D02*
D03*
X272638Y19261D02*
D03*
X275Y19311D02*
D03*
X272638Y19161D02*
D03*
D134*
X277955Y185239D02*
D03*
X254917Y177163D02*
D03*
D135*
X276955Y185239D02*
D03*
X255917Y177163D02*
D03*
D136*
X248327Y188976D02*
D03*
D137*
X249327Y187976D02*
D03*
X247327Y189976D02*
D03*
D138*
X249327D02*
D03*
X247327Y187976D02*
D03*
D139*
X268209Y203165D02*
D03*
Y201165D02*
D03*
Y202165D02*
D03*
X270079Y203165D02*
D03*
Y201165D02*
D03*
Y202165D02*
D03*
X274016Y201559D02*
D03*
Y203559D02*
D03*
Y202559D02*
D03*
X277953Y203559D02*
D03*
Y201559D02*
D03*
Y202559D02*
D03*
X275984Y203559D02*
D03*
X275984Y201559D02*
D03*
Y202559D02*
D03*
D140*
X280315Y202756D02*
D03*
Y175197D02*
D03*
X249606D02*
D03*
Y202756D02*
D03*
D141*
X27313Y176378D02*
D03*
D142*
X275098Y175197D02*
D03*
Y177559D02*
D03*
D143*
X278543Y177657D02*
D03*
D144*
X279958Y179072D02*
D03*
X278543Y180486D02*
D03*
X277129Y179072D02*
D03*
D145*
X285295Y183957D02*
D03*
X283917Y182185D02*
D03*
X280935Y182303D02*
D03*
X282028Y185925D02*
D03*
X282687Y184941D02*
D03*
X285295Y193799D02*
D03*
X283917Y192028D02*
D03*
X280935Y192146D02*
D03*
X282028Y195768D02*
D03*
X282687Y194783D02*
D03*
X285295Y188878D02*
D03*
X283917Y187106D02*
D03*
X280935Y187224D02*
D03*
X282028Y190846D02*
D03*
X282687Y189862D02*
D03*
D146*
X268012Y186516D02*
D03*
X269932D02*
D03*
D147*
X277953Y195079D02*
D03*
D148*
X253346Y200689D02*
D03*
X254346D02*
D03*
X255346D02*
D03*
X256346D02*
D03*
X254346Y203689D02*
D03*
X255346D02*
D03*
X256346D02*
D03*
D149*
X253346D02*
D03*
D150*
X276451Y183134D02*
D03*
X277471Y184154D02*
D03*
X278481Y183144D02*
D03*
D151*
X249213Y181594D02*
D03*
X274764Y181594D02*
D03*
M02*
