G04 Layer_Color=8421504*
%FSTAX24Y24*%
%MOIN*%
G70*
G01*
G75*
%ADD10R,0.0374X0.0394*%
%ADD11R,0.0512X0.0500*%
%ADD12R,0.0394X0.0374*%
%ADD13R,0.0472X0.0472*%
%ADD14R,0.0512X0.0591*%
%ADD15R,0.0610X0.0591*%
%ADD16R,0.0550X0.0500*%
%ADD17R,0.0591X0.0512*%
%ADD18R,0.0650X0.0600*%
%ADD19C,0.0591*%
%ADD20R,0.0866X0.0610*%
%ADD21R,0.0472X0.0472*%
%ADD22R,0.0900X0.0900*%
%ADD23R,0.1354X0.0598*%
%ADD24R,0.0591X0.0157*%
%ADD25R,0.1929X0.1004*%
%ADD26R,0.0256X0.0394*%
%ADD27R,0.0472X0.0650*%
%ADD28R,0.0098X0.0394*%
%ADD29R,0.0098X0.0394*%
%ADD30R,0.0787X0.0394*%
%ADD31R,0.0394X0.0315*%
%ADD32R,0.0500X0.0512*%
%ADD33R,0.0610X0.0236*%
%ADD34R,0.0787X0.1181*%
%ADD35R,0.0315X0.0984*%
%ADD36R,0.0984X0.0315*%
%ADD37R,0.0472X0.0335*%
G04:AMPARAMS|DCode=38|XSize=37.4mil|YSize=39.4mil|CornerRadius=0mil|HoleSize=0mil|Usage=FLASHONLY|Rotation=45.000|XOffset=0mil|YOffset=0mil|HoleType=Round|Shape=Rectangle|*
%AMROTATEDRECTD38*
4,1,4,0.0007,-0.0271,-0.0271,0.0007,-0.0007,0.0271,0.0271,-0.0007,0.0007,-0.0271,0.0*
%
%ADD38ROTATEDRECTD38*%

G04:AMPARAMS|DCode=39|XSize=37.4mil|YSize=39.4mil|CornerRadius=0mil|HoleSize=0mil|Usage=FLASHONLY|Rotation=315.000|XOffset=0mil|YOffset=0mil|HoleType=Round|Shape=Rectangle|*
%AMROTATEDRECTD39*
4,1,4,-0.0271,-0.0007,0.0007,0.0271,0.0271,0.0007,-0.0007,-0.0271,-0.0271,-0.0007,0.0*
%
%ADD39ROTATEDRECTD39*%

%ADD40O,0.0709X0.0118*%
%ADD41O,0.0118X0.0709*%
%ADD42R,0.0236X0.0610*%
%ADD43R,0.0450X0.0984*%
%ADD44R,0.1181X0.2362*%
%ADD45R,0.0591X0.0197*%
D10*
X256496Y194862D02*
D03*
Y195492D02*
D03*
X255512Y194862D02*
D03*
Y195492D02*
D03*
X260138Y195492D02*
D03*
Y194862D02*
D03*
X25935Y194862D02*
D03*
Y195492D02*
D03*
X260925Y194862D02*
D03*
Y195492D02*
D03*
X25502Y175669D02*
D03*
Y176299D02*
D03*
X262894Y182402D02*
D03*
Y181772D02*
D03*
X282972Y188366D02*
D03*
Y188996D02*
D03*
X282283Y188996D02*
D03*
Y188366D02*
D03*
X280709Y188996D02*
D03*
Y188366D02*
D03*
X282972Y183445D02*
D03*
Y184075D02*
D03*
X282283D02*
D03*
Y183445D02*
D03*
X280709Y184075D02*
D03*
Y183445D02*
D03*
X282972Y193287D02*
D03*
Y193917D02*
D03*
X282283Y193917D02*
D03*
Y193287D02*
D03*
X280709Y193917D02*
D03*
Y193287D02*
D03*
X258465Y177638D02*
D03*
Y178268D02*
D03*
X257677Y177638D02*
D03*
Y178268D02*
D03*
X25502Y17439D02*
D03*
Y17502D02*
D03*
X252362Y194862D02*
D03*
Y195492D02*
D03*
X253051Y194862D02*
D03*
Y195492D02*
D03*
X257441Y194843D02*
D03*
Y195472D02*
D03*
X254331Y20248D02*
D03*
Y20185D02*
D03*
X260433Y20248D02*
D03*
Y20185D02*
D03*
X258268Y20248D02*
D03*
Y20185D02*
D03*
X262205Y202382D02*
D03*
Y201752D02*
D03*
X262894Y201752D02*
D03*
Y202382D02*
D03*
Y200374D02*
D03*
Y201004D02*
D03*
X265157Y201752D02*
D03*
Y202382D02*
D03*
X264468Y201752D02*
D03*
Y202382D02*
D03*
X263189Y190669D02*
D03*
Y190039D02*
D03*
X263976Y190039D02*
D03*
Y190669D02*
D03*
X266929Y183681D02*
D03*
Y183051D02*
D03*
X270669Y183051D02*
D03*
Y183681D02*
D03*
X266831Y188268D02*
D03*
Y188898D02*
D03*
X264665Y188268D02*
D03*
Y188898D02*
D03*
X271811Y191535D02*
D03*
Y192165D02*
D03*
X270512Y189449D02*
D03*
Y190079D02*
D03*
X27313Y201752D02*
D03*
Y202382D02*
D03*
D11*
X274821Y183172D02*
D03*
X275569D02*
D03*
X277084Y187995D02*
D03*
X277833Y187995D02*
D03*
X277084Y193113D02*
D03*
X277833D02*
D03*
X261041Y177759D02*
D03*
X261789D02*
D03*
X253364Y1752D02*
D03*
X254112D02*
D03*
X249409Y184449D02*
D03*
X248228D02*
D03*
D12*
X275512Y183957D02*
D03*
X274882D02*
D03*
X275512Y184646D02*
D03*
X274882Y184646D02*
D03*
X282264Y187106D02*
D03*
X282894D02*
D03*
X282264Y182185D02*
D03*
X282894D02*
D03*
X282264Y192028D02*
D03*
X282894D02*
D03*
X265039Y176772D02*
D03*
X265669D02*
D03*
X263661Y174409D02*
D03*
X264291D02*
D03*
X265039D02*
D03*
X265669D02*
D03*
X263661Y176772D02*
D03*
X264291D02*
D03*
X25248Y175197D02*
D03*
X25185D02*
D03*
X247815Y182165D02*
D03*
X247185D02*
D03*
X247815Y182854D02*
D03*
X247185Y182854D02*
D03*
X247815Y183543D02*
D03*
X247185Y183543D02*
D03*
X249134Y183563D02*
D03*
X248504D02*
D03*
X254843D02*
D03*
X254213D02*
D03*
X258484Y183957D02*
D03*
X257854D02*
D03*
X253031Y196358D02*
D03*
X253661D02*
D03*
X274134Y190787D02*
D03*
X273504D02*
D03*
X262874Y186811D02*
D03*
X263504D02*
D03*
X263504Y187795D02*
D03*
X262874D02*
D03*
X263504Y188484D02*
D03*
X262874D02*
D03*
D13*
X275768Y185532D02*
D03*
X274626Y185532D02*
D03*
D14*
X277084Y190751D02*
D03*
X277833D02*
D03*
D15*
X279331Y194213D02*
D03*
Y192795D02*
D03*
Y185315D02*
D03*
Y186732D02*
D03*
Y18939D02*
D03*
Y187972D02*
D03*
X259646Y176299D02*
D03*
Y174882D02*
D03*
X256693Y179016D02*
D03*
Y180433D02*
D03*
X255217D02*
D03*
Y179016D02*
D03*
D16*
X261044Y182537D02*
D03*
Y181637D02*
D03*
D17*
X262011Y182561D02*
D03*
Y181813D02*
D03*
X2502Y183545D02*
D03*
Y182797D02*
D03*
X271302Y19014D02*
D03*
Y189392D02*
D03*
D18*
X283858Y194312D02*
D03*
Y193012D02*
D03*
X283957Y184469D02*
D03*
X283957Y183169D02*
D03*
Y189391D02*
D03*
Y188091D02*
D03*
D19*
X263086Y173919D02*
D03*
X255212Y181694D02*
D03*
X263972Y182383D02*
D03*
X271654Y175591D02*
D03*
X267515Y177954D02*
D03*
X261019Y178742D02*
D03*
X251767Y174312D02*
D03*
X254129D02*
D03*
X248499Y181596D02*
D03*
X27618Y181885D02*
D03*
D20*
X262795Y177953D02*
D03*
X265945D02*
D03*
D21*
X281496Y189252D02*
D03*
X281496Y18811D02*
D03*
X281496Y184331D02*
D03*
X281496Y183189D02*
D03*
X281496Y194173D02*
D03*
X281496Y193032D02*
D03*
D22*
X270782Y177165D02*
D03*
X268982D02*
D03*
D23*
X267323Y176364D02*
D03*
Y174817D02*
D03*
D24*
X26378Y176063D02*
D03*
Y175807D02*
D03*
Y175551D02*
D03*
X26378Y175295D02*
D03*
X265551Y176063D02*
D03*
Y175807D02*
D03*
Y175551D02*
D03*
Y175295D02*
D03*
D25*
X261811Y176289D02*
D03*
Y174892D02*
D03*
D26*
X258445Y175669D02*
D03*
X258071D02*
D03*
X257697D02*
D03*
X258445Y176693D02*
D03*
X257697D02*
D03*
D27*
X256494Y174449D02*
D03*
X257994D02*
D03*
X2539Y180807D02*
D03*
X2524D02*
D03*
D28*
X252362Y177323D02*
D03*
X252953D02*
D03*
X252559D02*
D03*
Y17622D02*
D03*
X252756D02*
D03*
X252953D02*
D03*
X25315D02*
D03*
X252756Y177323D02*
D03*
X252362Y17622D02*
D03*
D29*
X25315Y177323D02*
D03*
D30*
X252756Y176772D02*
D03*
D31*
X256811Y175984D02*
D03*
X255787Y17561D02*
D03*
Y176358D02*
D03*
D32*
X253841Y179215D02*
D03*
Y178467D02*
D03*
D33*
X255837Y183563D02*
D03*
X256791Y183937D02*
D03*
Y183189D02*
D03*
D34*
X252756Y179035D02*
D03*
X251181D02*
D03*
X269783Y182579D02*
D03*
X269783Y184154D02*
D03*
X267815D02*
D03*
Y182579D02*
D03*
D35*
X260276Y192638D02*
D03*
X259803D02*
D03*
X259331D02*
D03*
X258858D02*
D03*
X258386D02*
D03*
X257913D02*
D03*
X257441D02*
D03*
X256968D02*
D03*
X256496D02*
D03*
X256024D02*
D03*
X255551D02*
D03*
X255079D02*
D03*
X254606D02*
D03*
X254134D02*
D03*
X253661D02*
D03*
X253189D02*
D03*
X252717D02*
D03*
X252244D02*
D03*
X251772D02*
D03*
X256024Y185827D02*
D03*
X251772D02*
D03*
X252244D02*
D03*
X252717D02*
D03*
X253189D02*
D03*
X253661D02*
D03*
X254134D02*
D03*
X254606D02*
D03*
X255079D02*
D03*
X255551D02*
D03*
X256496D02*
D03*
X256968D02*
D03*
X257441D02*
D03*
X257913D02*
D03*
X258386D02*
D03*
X258858D02*
D03*
X259331D02*
D03*
X259803D02*
D03*
X260276D02*
D03*
D36*
X26126Y186161D02*
D03*
Y186634D02*
D03*
Y187106D02*
D03*
Y187579D02*
D03*
Y188051D02*
D03*
Y188524D02*
D03*
Y188996D02*
D03*
Y189468D02*
D03*
Y189941D02*
D03*
Y190413D02*
D03*
Y190886D02*
D03*
Y191358D02*
D03*
Y191831D02*
D03*
Y192303D02*
D03*
X250787D02*
D03*
Y191831D02*
D03*
Y191358D02*
D03*
Y190886D02*
D03*
Y190413D02*
D03*
Y189941D02*
D03*
Y189468D02*
D03*
Y188996D02*
D03*
Y188524D02*
D03*
Y188051D02*
D03*
Y187579D02*
D03*
Y187106D02*
D03*
Y186634D02*
D03*
Y186161D02*
D03*
D37*
X253839Y195551D02*
D03*
X253841Y194807D02*
D03*
X254823Y195177D02*
D03*
D38*
X269954Y196581D02*
D03*
X2704Y196136D02*
D03*
X264836Y191463D02*
D03*
X265282Y191017D02*
D03*
D39*
X265282Y196581D02*
D03*
X264836Y196136D02*
D03*
X2704Y191463D02*
D03*
X269954Y191017D02*
D03*
D40*
X265433Y192323D02*
D03*
Y19252D02*
D03*
Y192717D02*
D03*
Y192913D02*
D03*
Y19311D02*
D03*
Y193307D02*
D03*
X265433Y193504D02*
D03*
Y193701D02*
D03*
X265433Y193898D02*
D03*
Y194094D02*
D03*
Y194291D02*
D03*
Y194488D02*
D03*
Y194685D02*
D03*
X265433Y194882D02*
D03*
Y195079D02*
D03*
X265433Y195276D02*
D03*
X269803Y195276D02*
D03*
Y195079D02*
D03*
Y194882D02*
D03*
Y194685D02*
D03*
Y194488D02*
D03*
Y194291D02*
D03*
Y194094D02*
D03*
Y193898D02*
D03*
Y193701D02*
D03*
Y193504D02*
D03*
Y193307D02*
D03*
X269803Y19311D02*
D03*
Y192913D02*
D03*
X269803Y192717D02*
D03*
Y19252D02*
D03*
Y192323D02*
D03*
D41*
X266142Y195984D02*
D03*
X266339Y195984D02*
D03*
X266535D02*
D03*
X266732Y195984D02*
D03*
X266929D02*
D03*
X267126D02*
D03*
X267323D02*
D03*
X26752D02*
D03*
X267717Y195984D02*
D03*
X267913D02*
D03*
X26811D02*
D03*
X268307Y195984D02*
D03*
X268504D02*
D03*
X268701D02*
D03*
X268898D02*
D03*
X269094D02*
D03*
Y191614D02*
D03*
X268898D02*
D03*
X268701D02*
D03*
X268504Y191614D02*
D03*
X268307D02*
D03*
X26811Y191614D02*
D03*
X267913D02*
D03*
X267717D02*
D03*
X26752D02*
D03*
X267323D02*
D03*
X267126D02*
D03*
X266929D02*
D03*
X266732D02*
D03*
X266535D02*
D03*
X266339D02*
D03*
X266142Y191614D02*
D03*
D42*
X263189Y185069D02*
D03*
X262815Y186024D02*
D03*
X263563D02*
D03*
D43*
X266256Y188976D02*
D03*
X265256D02*
D03*
D44*
X265756Y185827D02*
D03*
D45*
X275Y19161D02*
D03*
X272638Y19211D02*
D03*
Y19311D02*
D03*
X275Y19261D02*
D03*
Y19211D02*
D03*
X272638Y19261D02*
D03*
X275Y19311D02*
D03*
X272638Y19161D02*
D03*
M02*
