G04 Layer_Physical_Order=2*
G04 Layer_Color=16711680*
%FSTAX24Y24*%
%MOIN*%
G70*
G01*
G75*
%ADD10R,0.0374X0.0394*%
%ADD12R,0.0394X0.0374*%
%ADD19C,0.0591*%
%ADD46C,0.0300*%
%ADD47C,0.0400*%
%ADD48C,0.0100*%
%ADD49C,0.0200*%
%ADD51R,0.0640X0.0640*%
%ADD52C,0.0640*%
%ADD53C,0.0787*%
%ADD54R,0.0984X0.0984*%
%ADD55R,0.0984X0.0984*%
%ADD56C,0.0650*%
%ADD57C,0.1969*%
%ADD58O,0.0701X0.1500*%
%ADD59O,0.1500X0.0701*%
%ADD60P,0.1075X4X90.0*%
%ADD61C,0.0760*%
%ADD62C,0.0866*%
G04:AMPARAMS|DCode=63|XSize=63mil|YSize=63mil|CornerRadius=31.5mil|HoleSize=0mil|Usage=FLASHONLY|Rotation=90.000|XOffset=0mil|YOffset=0mil|HoleType=Round|Shape=RoundedRectangle|*
%AMROUNDEDRECTD63*
21,1,0.0630,0.0000,0,0,90.0*
21,1,0.0000,0.0630,0,0,90.0*
1,1,0.0630,0.0000,0.0000*
1,1,0.0630,0.0000,0.0000*
1,1,0.0630,0.0000,0.0000*
1,1,0.0630,0.0000,0.0000*
%
%ADD63ROUNDEDRECTD63*%
%ADD64R,0.0591X0.0591*%
%ADD65O,0.0600X0.0900*%
%ADD66R,0.0600X0.0900*%
%ADD67C,0.0630*%
%ADD68O,0.0630X0.1811*%
%ADD69C,0.0236*%
%ADD70R,0.0400X0.0787*%
%ADD71R,0.1732X0.0866*%
%ADD72R,0.0394X0.0591*%
%ADD73R,0.1378X0.0551*%
%ADD74R,0.0787X0.0571*%
%ADD75R,0.0591X0.0315*%
%ADD76R,0.0394X0.0413*%
%ADD77R,0.0335X0.0866*%
%ADD78C,0.0492*%
%ADD79C,0.0000*%
%ADD80R,0.5500X0.0550*%
%ADD81R,0.5552X0.0550*%
G36*
X263228Y203898D02*
X263228Y203268D01*
X262717Y203268D01*
X262717Y203898D01*
X263228Y203898D01*
D02*
G37*
G36*
X281737Y19685D02*
X278334D01*
X278307Y1969D01*
X278338Y196976D01*
X278351Y197079D01*
X278338Y197182D01*
X278298Y197278D01*
X278235Y197361D01*
X278152Y197424D01*
X278056Y197464D01*
X277953Y197477D01*
X27785Y197464D01*
X277753Y197424D01*
X277671Y197361D01*
X277607Y197278D01*
X277568Y197182D01*
X277554Y197079D01*
X277568Y196976D01*
X277599Y1969D01*
X277571Y19685D01*
X277441D01*
Y190192D01*
X269433D01*
X268612Y191014D01*
X268562Y191047D01*
X268504Y191058D01*
X267601D01*
X267598Y191063D01*
X267526Y191111D01*
X267441Y191128D01*
X267396Y191119D01*
X267358Y191151D01*
Y19159D01*
X267994Y192226D01*
X268032Y192219D01*
X268117Y192235D01*
X268189Y192284D01*
X268237Y192356D01*
X268254Y192441D01*
X268239Y192514D01*
X268267Y192564D01*
X268322D01*
X268479Y192407D01*
X268478Y192402D01*
X268495Y192316D01*
X268544Y192244D01*
X268616Y192196D01*
X268701Y192179D01*
X268773Y192194D01*
X268811Y192173D01*
X268823Y192161D01*
Y191417D01*
X268835Y191359D01*
X268868Y191309D01*
X269144Y191034D01*
X269193Y191D01*
X269252Y190989D01*
X276024D01*
X276082Y191D01*
X276132Y191034D01*
X277234Y192136D01*
X277267Y192186D01*
X277279Y192244D01*
Y201039D01*
X277556Y201316D01*
X277606Y201313D01*
X27765Y201256D01*
X277739Y201188D01*
X277842Y201145D01*
X277953Y201131D01*
X278064Y201145D01*
X278167Y201188D01*
X278256Y201256D01*
X278324Y201345D01*
X278367Y201448D01*
X278381Y201559D01*
X278367Y20167D01*
X278324Y201773D01*
X278256Y201862D01*
X278167Y20193D01*
X278064Y201973D01*
X277953Y201988D01*
X277842Y201973D01*
X277739Y20193D01*
X27765Y201862D01*
X277582Y201773D01*
X277554Y201706D01*
X277524Y2017D01*
X277475Y201667D01*
X277018Y201211D01*
X276985Y201161D01*
X276973Y201102D01*
Y192307D01*
X276931Y192266D01*
X276885Y192285D01*
Y201945D01*
X277347Y202406D01*
X277556D01*
X277582Y202345D01*
X27765Y202256D01*
X277739Y202188D01*
X277842Y202145D01*
X277953Y202131D01*
X278064Y202145D01*
X278167Y202188D01*
X278256Y202256D01*
X278324Y202345D01*
X278367Y202448D01*
X278381Y202559D01*
X278367Y20267D01*
X278324Y202773D01*
X278256Y202862D01*
X278167Y20293D01*
X278064Y202973D01*
X277953Y202988D01*
X277842Y202973D01*
X277739Y20293D01*
X27765Y202862D01*
X277582Y202773D01*
X277556Y202712D01*
X277283D01*
X277225Y2027D01*
X277175Y202667D01*
X276624Y202116D01*
X276591Y202066D01*
X276579Y202008D01*
Y201178D01*
X276529Y201173D01*
X276519Y201224D01*
X276486Y201273D01*
X276373Y201387D01*
X276398Y201448D01*
X276413Y201559D01*
X276398Y20167D01*
X276355Y201773D01*
X276287Y201862D01*
X276198Y20193D01*
X276095Y201973D01*
X275984Y201988D01*
X275873Y201973D01*
X27577Y20193D01*
X275681Y201862D01*
X275613Y201773D01*
X27557Y20167D01*
X275556Y201559D01*
X27557Y201448D01*
X275613Y201345D01*
X275681Y201256D01*
X27577Y201188D01*
X275873Y201145D01*
X275984Y201131D01*
X276095Y201145D01*
X276156Y201171D01*
X276225Y201102D01*
Y192979D01*
X276181Y192937D01*
X27612D01*
X27607Y192985D01*
Y195827D01*
X276055Y195905D01*
X27601Y195971D01*
X27422Y197762D01*
Y201184D01*
X27423Y201188D01*
X274319Y201256D01*
X274387Y201345D01*
X274391Y201355D01*
X274472D01*
X27455Y201371D01*
X274617Y201415D01*
X274987Y201785D01*
X275031Y201851D01*
X275046Y201929D01*
Y203819D01*
X275031Y203897D01*
X274987Y203963D01*
X274554Y204396D01*
X274487Y20444D01*
X274409Y204456D01*
X262402D01*
X262324Y20444D01*
X262257Y204396D01*
X262061Y204199D01*
X262016Y204133D01*
X262001Y204055D01*
Y203958D01*
X261908D01*
Y203767D01*
X257854D01*
X257776Y203751D01*
X25771Y203707D01*
X256963Y20296D01*
X254331D01*
X254331Y20296D01*
X254253Y202944D01*
X254187Y2029D01*
X254187Y2029D01*
X253202Y201916D01*
X253158Y20185D01*
X253143Y201772D01*
Y201187D01*
X253061Y201124D01*
X252997Y201041D01*
X252957Y200943D01*
X252943Y200839D01*
Y200539D01*
X252957Y200435D01*
X252997Y200337D01*
X253061Y200254D01*
X253145Y20019D01*
X253242Y200149D01*
X253346Y200136D01*
X253451Y200149D01*
X253548Y20019D01*
X253632Y200254D01*
X253696Y200337D01*
X253736Y200435D01*
X25375Y200539D01*
Y200839D01*
X253736Y200943D01*
X253696Y201041D01*
X253632Y201124D01*
X25355Y201187D01*
Y201687D01*
X254415Y202552D01*
X257047D01*
X257125Y202568D01*
X257191Y202612D01*
X257939Y203359D01*
X261908D01*
Y203168D01*
X262502D01*
Y203359D01*
X262615D01*
Y203268D01*
X262622Y203229D01*
X262644Y203196D01*
X262678Y203174D01*
X262717Y203166D01*
X26302Y203166D01*
X263032Y203163D01*
X263043Y203166D01*
X263228D01*
X263267Y203174D01*
X2633Y203196D01*
X263323Y203229D01*
X26333Y203268D01*
X26333Y203898D01*
X263323Y203937D01*
X2633Y20397D01*
X263267Y203992D01*
X263236Y203998D01*
X263241Y204048D01*
X274325D01*
X274639Y203734D01*
Y202014D01*
X274427Y201802D01*
X274361Y201807D01*
X274319Y201862D01*
X27423Y20193D01*
X274127Y201973D01*
X274016Y201988D01*
X273905Y201973D01*
X273802Y20193D01*
X273713Y201862D01*
X273645Y201773D01*
X273602Y20167D01*
X273587Y201559D01*
X273602Y201448D01*
X273645Y201345D01*
X273713Y201256D01*
X273802Y201188D01*
X273812Y201184D01*
Y19792D01*
X270837D01*
X27082Y197946D01*
X270787Y197968D01*
X270748Y197976D01*
X270118Y197976D01*
X270079Y197968D01*
X270046Y197946D01*
X270024Y197913D01*
X270016Y197874D01*
Y197571D01*
X270014Y197559D01*
X270016Y197547D01*
Y197441D01*
X270024Y197402D01*
X270046Y197369D01*
X270079Y197347D01*
X270118Y197339D01*
X270225D01*
X270236Y197337D01*
X270248Y197339D01*
X270618Y197339D01*
X27063Y197337D01*
X270642Y197339D01*
X270748D01*
X270787Y197347D01*
X27082Y197369D01*
X270842Y197402D01*
X27085Y197441D01*
Y197513D01*
X27222D01*
X272225Y197463D01*
X272159Y19745D01*
X272087Y197401D01*
X272039Y197329D01*
X272022Y197244D01*
X272023Y197239D01*
X269858Y195074D01*
X268979D01*
X268976Y195079D01*
X268904Y195127D01*
X26885Y195138D01*
X268833Y195192D01*
X268966Y195325D01*
X269Y195375D01*
X269011Y195433D01*
Y198204D01*
X269596Y198789D01*
X269629Y198839D01*
X269641Y198898D01*
Y199961D01*
X269629Y200019D01*
X269596Y200069D01*
X269163Y200502D01*
X269114Y200535D01*
X269055Y200547D01*
X266441D01*
X265148Y20184D01*
X265098Y201874D01*
X265039Y201885D01*
X264134D01*
X264075Y201874D01*
X264026Y20184D01*
X263317Y201132D01*
X263284Y201082D01*
X263272Y201024D01*
Y200554D01*
X263268Y200551D01*
X26322Y200479D01*
X263203Y200394D01*
X26322Y200309D01*
X263268Y200236D01*
X26334Y200188D01*
X263425Y200171D01*
X26351Y200188D01*
X263582Y200236D01*
X263631Y200309D01*
X263648Y200394D01*
X263631Y200479D01*
X263582Y200551D01*
X263578Y200554D01*
Y20096D01*
X264197Y201579D01*
X264976D01*
X26627Y200286D01*
X266319Y200252D01*
X26637Y200242D01*
X266365Y200192D01*
X265654D01*
X265167Y200679D01*
X265118Y200712D01*
X265059Y200724D01*
X264765D01*
Y200966D01*
X264621D01*
Y201119D01*
X264626Y201122D01*
X264674Y201194D01*
X264691Y20128D01*
X264674Y201365D01*
X264626Y201437D01*
X264554Y201485D01*
X264468Y201502D01*
X264383Y201485D01*
X264311Y201437D01*
X264263Y201365D01*
X264246Y20128D01*
X264263Y201194D01*
X264311Y201122D01*
X264316Y201119D01*
Y200966D01*
X264172D01*
Y200176D01*
X264765D01*
Y200418D01*
X264996D01*
X265482Y199931D01*
X265488Y199927D01*
X265473Y199877D01*
X261735D01*
X261732Y199882D01*
X26166Y19993D01*
X261575Y199947D01*
X26149Y19993D01*
X261418Y199882D01*
X261369Y19981D01*
X261352Y199724D01*
X261369Y199639D01*
X261418Y199567D01*
X26149Y199519D01*
X261575Y199502D01*
X26166Y199519D01*
X261732Y199567D01*
X261735Y199571D01*
X26582D01*
X265846Y199533D01*
X26585Y199521D01*
X265843Y199488D01*
Y199202D01*
X265486Y198845D01*
X265442Y198779D01*
X265426Y198701D01*
Y197189D01*
X265315D01*
X265276Y197181D01*
X265243Y197159D01*
X265221Y197126D01*
X265213Y197087D01*
Y196783D01*
X265211Y196772D01*
X265213Y19676D01*
Y196654D01*
X265215Y196646D01*
X26517Y196616D01*
X265137Y196637D01*
X265079Y196649D01*
X263443D01*
X263416Y196699D01*
X263434Y196726D01*
X263451Y196811D01*
X263434Y196896D01*
X263386Y196968D01*
X263381Y196971D01*
Y198108D01*
X263386Y19811D01*
X263434Y198183D01*
X263451Y198268D01*
X263434Y198353D01*
X263386Y198425D01*
X263313Y198473D01*
X263228Y19849D01*
X263143Y198473D01*
X263071Y198425D01*
X263057Y198403D01*
X263006D01*
X262992Y198425D01*
X26292Y198473D01*
X262835Y19849D01*
X26275Y198473D01*
X262677Y198425D01*
X262675Y198421D01*
X262229D01*
X261137Y199512D01*
Y200391D01*
X261141Y200394D01*
X26119Y200466D01*
X261207Y200551D01*
X26119Y200636D01*
X261141Y200708D01*
X261069Y200757D01*
X260984Y200774D01*
X260899Y200757D01*
X260827Y200708D01*
X260779Y200636D01*
X260762Y200551D01*
X260779Y200466D01*
X260827Y200394D01*
X260831Y200391D01*
Y199495D01*
X260781Y199474D01*
X260586Y19967D01*
Y201554D01*
X26072D01*
Y202133D01*
X26072Y202183D01*
X26072Y202197D01*
Y202777D01*
X260586D01*
Y202832D01*
X26059Y202835D01*
X260638Y202907D01*
X260655Y202992D01*
X260638Y203077D01*
X26059Y203149D01*
X260518Y203198D01*
X260433Y203214D01*
X260348Y203198D01*
X260276Y203149D01*
X260228Y203077D01*
X260211Y202992D01*
X260228Y202907D01*
X260276Y202835D01*
X26028Y202832D01*
Y202777D01*
X260146D01*
Y202197D01*
X260146Y202147D01*
X260146Y202134D01*
Y201554D01*
X26028D01*
Y199606D01*
X260292Y199548D01*
X260325Y199498D01*
X260801Y199022D01*
X260781Y198972D01*
X2602D01*
X260197Y198976D01*
X260124Y199024D01*
X260039Y199041D01*
X259954Y199024D01*
X259927Y199006D01*
X259877Y199033D01*
Y199722D01*
X259882Y199725D01*
X25993Y199797D01*
X259947Y199882D01*
X25993Y199967D01*
X259882Y200039D01*
X25981Y200087D01*
X259724Y200104D01*
X259639Y200087D01*
X259567Y200039D01*
X259553Y200018D01*
X259503Y200034D01*
Y201554D01*
X259637D01*
Y202133D01*
X259637Y202183D01*
X259637Y202197D01*
Y202311D01*
X259687Y202322D01*
X259757Y202275D01*
X259842Y202258D01*
X259928Y202275D01*
X26Y202323D01*
X260048Y202395D01*
X260065Y20248D01*
X260048Y202565D01*
X26Y202638D01*
X259928Y202686D01*
X259842Y202703D01*
X259757Y202686D01*
X259687Y202639D01*
X259637Y202649D01*
Y202777D01*
X259063D01*
Y202197D01*
X259063Y202147D01*
X259063Y202134D01*
Y201554D01*
X259197D01*
Y198228D01*
X259209Y19817D01*
X259242Y19812D01*
X260831Y196531D01*
Y194512D01*
X254104Y187785D01*
X254071Y187736D01*
X25406Y187677D01*
Y184255D01*
X254055Y184252D01*
X254007Y18418D01*
X25399Y184094D01*
X254007Y184009D01*
X254055Y183937D01*
X254128Y183889D01*
X254213Y183872D01*
X254298Y183889D01*
X25437Y183937D01*
X254418Y184009D01*
X254435Y184094D01*
X254418Y18418D01*
X25437Y184252D01*
X254366Y184255D01*
Y187614D01*
X259132Y19238D01*
X259178Y192361D01*
Y191971D01*
X259173Y191968D01*
X259125Y191896D01*
X259108Y191811D01*
X259125Y191726D01*
X259173Y191654D01*
X259246Y191606D01*
X259331Y191589D01*
X259416Y191606D01*
X259488Y191654D01*
X259536Y191726D01*
X259553Y191811D01*
X259536Y191896D01*
X259488Y191968D01*
X259484Y191971D01*
Y192417D01*
X261021Y193954D01*
X261068Y193939D01*
X261074Y193911D01*
X261122Y193839D01*
X261194Y193791D01*
X26128Y193774D01*
X261365Y193791D01*
X261437Y193839D01*
X26144Y193843D01*
X263483D01*
Y19362D01*
X263766D01*
X263781Y19357D01*
X26374Y193543D01*
X263738Y193539D01*
X262916D01*
X262913Y193543D01*
X262841Y193591D01*
X262756Y193608D01*
X262671Y193591D01*
X262599Y193543D01*
X26255Y193471D01*
X262534Y193386D01*
X26255Y193301D01*
X262599Y193229D01*
X262671Y19318D01*
X262756Y193163D01*
X262841Y19318D01*
X262913Y193229D01*
X262916Y193233D01*
X263738D01*
X26374Y193229D01*
X263813Y19318D01*
X263898Y193163D01*
X263983Y19318D01*
X264055Y193229D01*
X264103Y193301D01*
X26412Y193386D01*
X264103Y193471D01*
X264055Y193543D01*
X264014Y19357D01*
X264029Y19362D01*
X265061D01*
Y194372D01*
X263483D01*
Y194149D01*
X26144D01*
X261437Y194153D01*
X261365Y194202D01*
X261336Y194207D01*
X261322Y194255D01*
X26191Y194843D01*
X263483D01*
Y19462D01*
X265061D01*
Y195372D01*
X263483D01*
Y195149D01*
X261846D01*
X261788Y195137D01*
X261738Y195104D01*
X261183Y194549D01*
X261137Y194568D01*
Y196595D01*
X261134Y19661D01*
X26118Y196635D01*
X261427Y196388D01*
X261477Y196355D01*
X261535Y196343D01*
X263483D01*
Y196149D01*
X262059D01*
X262001Y196137D01*
X261951Y196104D01*
X26158Y195733D01*
X261575Y195734D01*
X26149Y195717D01*
X261418Y195669D01*
X261369Y195597D01*
X261352Y195512D01*
X261369Y195427D01*
X261418Y195355D01*
X26149Y195306D01*
X261575Y195289D01*
X26166Y195306D01*
X261732Y195355D01*
X26178Y195427D01*
X261797Y195512D01*
X261796Y195517D01*
X262122Y195843D01*
X263483D01*
Y19562D01*
X265061D01*
Y196233D01*
X265107Y196252D01*
X265622Y195737D01*
Y194106D01*
X264808Y193292D01*
X264803Y193293D01*
X264718Y193276D01*
X264646Y193228D01*
X264598Y193156D01*
X264581Y193071D01*
X264598Y192986D01*
X264646Y192914D01*
X264718Y192865D01*
X264746Y19286D01*
X264761Y192812D01*
X264464Y192515D01*
X263622D01*
X263564Y192504D01*
X263514Y19247D01*
X262805Y191762D01*
X262772Y191712D01*
X26276Y191654D01*
Y189512D01*
X262574Y189326D01*
X262009D01*
Y189453D01*
X262084D01*
X262087Y189449D01*
X262159Y189401D01*
X262244Y189384D01*
X262329Y189401D01*
X262401Y189449D01*
X26245Y189521D01*
X262466Y189606D01*
X26245Y189691D01*
X262401Y189764D01*
X262329Y189812D01*
X262244Y189829D01*
X262159Y189812D01*
X262087Y189764D01*
X262084Y189759D01*
X262009D01*
Y190297D01*
X261219D01*
Y189782D01*
Y189349D01*
Y188944D01*
X260315D01*
X260237Y188929D01*
X260171Y188884D01*
X259265Y187979D01*
X259221Y187913D01*
X259206Y187835D01*
Y185315D01*
X259221Y185237D01*
X259265Y185171D01*
X260548Y183888D01*
X260529Y183842D01*
X260315D01*
X260276Y183834D01*
X260243Y183812D01*
X260221Y183779D01*
X260213Y18374D01*
Y182913D01*
X260221Y182874D01*
X260243Y182841D01*
X260276Y182819D01*
X260315Y182811D01*
X261417D01*
X261456Y182819D01*
X261489Y182841D01*
X261512Y182874D01*
X261519Y182913D01*
Y18374D01*
X261512Y183779D01*
X261489Y183812D01*
X261456Y183834D01*
X261417Y183842D01*
X261031D01*
Y183898D01*
X261015Y183976D01*
X260971Y184042D01*
X259613Y185399D01*
Y18775D01*
X260399Y188536D01*
X261219D01*
Y18805D01*
X262009D01*
Y188154D01*
X262087D01*
X262145Y188166D01*
X262195Y188199D01*
X262633Y188637D01*
X262638Y188636D01*
X262723Y188653D01*
X262762Y188679D01*
X262794Y18864D01*
X262018Y187864D01*
X261985Y187814D01*
X261973Y187756D01*
Y187698D01*
X261219D01*
Y187183D01*
Y18675D01*
X262009D01*
Y187288D01*
X262066Y1873D01*
X262094Y187318D01*
X262151Y187309D01*
X262158Y187304D01*
X262185Y187264D01*
X262257Y187216D01*
X262343Y187199D01*
X262428Y187216D01*
X2625Y187264D01*
X262548Y187336D01*
X262565Y187421D01*
X262548Y187506D01*
X2625Y187579D01*
X262428Y187627D01*
X262343Y187644D01*
X2623Y187683D01*
X262299Y187713D01*
X263218Y188632D01*
X263252Y188682D01*
X263263Y18874D01*
Y189622D01*
X266494Y192852D01*
X26654Y192833D01*
Y192562D01*
X266536Y192559D01*
X266487Y192487D01*
X266471Y192402D01*
X266487Y192316D01*
X266536Y192244D01*
X266608Y192196D01*
X266693Y192179D01*
X266778Y192196D01*
X266805Y192214D01*
X266855Y192187D01*
Y190772D01*
X265527Y189444D01*
X264255D01*
X264252Y189449D01*
X26418Y189497D01*
X264094Y189514D01*
X264009Y189497D01*
X263937Y189449D01*
X263889Y189376D01*
X263872Y189291D01*
X263889Y189206D01*
X263907Y189179D01*
X26388Y189129D01*
X263743D01*
X26374Y189134D01*
X263668Y189182D01*
X263583Y189199D01*
X263498Y189182D01*
X263425Y189134D01*
X263377Y189061D01*
X26336Y188976D01*
X263377Y188891D01*
X263425Y188819D01*
X263498Y188771D01*
X263583Y188754D01*
X263668Y188771D01*
X26374Y188819D01*
X263743Y188823D01*
X265591D01*
X265649Y188835D01*
X265699Y188868D01*
X267313Y190482D01*
X267346Y190532D01*
X267358Y190591D01*
Y19066D01*
X267396Y190692D01*
X267441Y190683D01*
X267448Y190685D01*
X267476Y190643D01*
X267472Y190636D01*
X267455Y190551D01*
X267472Y190466D01*
X26752Y190394D01*
X267592Y190346D01*
X267663Y190332D01*
X267677Y190328D01*
X2677Y190282D01*
X267691Y190236D01*
X267708Y190151D01*
X267756Y190079D01*
X267828Y190031D01*
X267913Y190014D01*
X267998Y190031D01*
X268071Y190079D01*
X268074Y190083D01*
X268244D01*
X271482Y186845D01*
X271465Y186791D01*
X271411Y18678D01*
X271339Y186732D01*
X271291Y18666D01*
X271274Y186575D01*
X271291Y18649D01*
X271339Y186418D01*
X271343Y186415D01*
Y186378D01*
X271355Y186319D01*
X271388Y18627D01*
X272527Y185131D01*
X272577Y185098D01*
X272635Y185086D01*
X275236D01*
Y18248D01*
X275945D01*
X277087Y181339D01*
X277207Y181218D01*
X277188Y181198D01*
X27714Y181136D01*
X277109Y181063D01*
X277099Y180984D01*
Y180197D01*
X277109Y180119D01*
X27714Y180046D01*
X277188Y179983D01*
X278241Y17893D01*
Y178034D01*
X277864Y177657D01*
X278543Y176979D01*
X279222Y177657D01*
X278846Y178034D01*
Y179055D01*
X278836Y179133D01*
X278805Y179206D01*
X278757Y179269D01*
X277704Y180322D01*
Y180859D01*
X277948Y181102D01*
X281737D01*
Y173381D01*
X248184D01*
Y181102D01*
X248173Y181161D01*
X24814Y181211D01*
X24809Y181244D01*
X248032Y181255D01*
X246806D01*
Y183805D01*
X246856Y18382D01*
X24687Y183799D01*
X246942Y183751D01*
X247028Y183734D01*
X247113Y183751D01*
X247185Y183799D01*
X247233Y183872D01*
X24725Y183957D01*
X247233Y184042D01*
X247185Y184114D01*
X247181Y184117D01*
Y184759D01*
X247563Y185142D01*
X248169D01*
X248228Y185154D01*
X248277Y185187D01*
X248533Y185443D01*
X248566Y185493D01*
X248578Y185551D01*
Y185851D01*
X248676Y185949D01*
X250276D01*
X250324Y185959D01*
X250348Y185931D01*
X250354Y185918D01*
X25027Y185834D01*
X249733D01*
X249731Y185835D01*
X249646Y185852D01*
X249561Y185835D01*
X249488Y185787D01*
X24944Y185715D01*
X249423Y18563D01*
X24944Y185545D01*
X249488Y185473D01*
X249561Y185424D01*
X249646Y185408D01*
X249731Y185424D01*
X249733Y185426D01*
X250354D01*
X250432Y185442D01*
X250499Y185486D01*
X251972Y186959D01*
X251975Y18696D01*
X252047Y187008D01*
X252095Y18708D01*
X252112Y187165D01*
X252095Y18725D01*
X252047Y187323D01*
X251975Y187371D01*
X25189Y187388D01*
X251838Y187377D01*
X251813Y187423D01*
X252245Y187855D01*
X252278Y187905D01*
X25229Y187963D01*
Y197624D01*
X252819Y198154D01*
X258738D01*
X25874Y19815D01*
X258813Y198102D01*
X258898Y198085D01*
X258983Y198102D01*
X259055Y19815D01*
X259103Y198222D01*
X25912Y198307D01*
X259103Y198392D01*
X259055Y198464D01*
X258983Y198513D01*
X258898Y198529D01*
X258813Y198513D01*
X25874Y198464D01*
X258738Y19846D01*
X255867D01*
X255848Y198502D01*
X255848Y19851D01*
Y199254D01*
X25427D01*
Y19851D01*
X25427Y198502D01*
X254252Y19846D01*
X252756D01*
X252697Y198448D01*
X252648Y198415D01*
X252028Y197796D01*
X251995Y197746D01*
X251984Y197688D01*
Y188027D01*
X250212Y186255D01*
X248613D01*
X248554Y186244D01*
X248505Y186211D01*
X248317Y186023D01*
X248284Y185973D01*
X248272Y185915D01*
Y185615D01*
X248106Y185448D01*
X2475D01*
X247441Y185437D01*
X247392Y185403D01*
X246919Y184931D01*
X246886Y184881D01*
X246875Y184823D01*
Y184138D01*
X246856Y184123D01*
X246806Y184146D01*
Y196697D01*
X248032D01*
X24809Y196709D01*
X24814Y196742D01*
X248173Y196792D01*
X248184Y19685D01*
Y204571D01*
X281737D01*
Y19685D01*
D02*
G37*
G36*
X26902Y199858D02*
Y199394D01*
X268475Y198848D01*
X268441Y198799D01*
X26843Y19874D01*
Y195575D01*
X26779Y194936D01*
X267736Y194952D01*
X267725Y195006D01*
X267677Y195079D01*
X267627Y195112D01*
X267642Y195162D01*
X267835D01*
X267893Y195174D01*
X267943Y195207D01*
X268258Y195522D01*
X268291Y195571D01*
X268303Y19563D01*
Y198777D01*
X268307Y19878D01*
X268355Y198852D01*
X268372Y198937D01*
X268355Y199022D01*
X268307Y199094D01*
X268235Y199142D01*
X26815Y199159D01*
X268064Y199142D01*
X267992Y199094D01*
X267944Y199022D01*
X267927Y198937D01*
X267944Y198852D01*
X267992Y19878D01*
X267997Y198777D01*
Y195693D01*
X267771Y195468D01*
X267323D01*
X267264Y195456D01*
X267215Y195423D01*
X267073Y195282D01*
X266171D01*
X266109Y195324D01*
X266024Y19534D01*
X265978Y195331D01*
X265928Y195372D01*
Y1958D01*
X265916Y195859D01*
X265883Y195908D01*
X265284Y196507D01*
X265309Y196553D01*
X265315Y196552D01*
X265421D01*
X265433Y196549D01*
X265445Y196552D01*
X265815Y196552D01*
X265827Y196549D01*
X265838Y196552D01*
X265945D01*
X265984Y196559D01*
X266017Y196581D01*
X266039Y196615D01*
X266047Y196654D01*
Y196726D01*
X266097Y196741D01*
X266103Y196733D01*
X266175Y196684D01*
X26626Y196667D01*
X266345Y196684D01*
X266417Y196733D01*
X26642Y196737D01*
X267438D01*
X267441Y196733D01*
X267513Y196684D01*
X267598Y196667D01*
X267684Y196684D01*
X267756Y196733D01*
X267804Y196805D01*
X267821Y19689D01*
X267804Y196975D01*
X267756Y197047D01*
X267684Y197095D01*
X267598Y197112D01*
X267513Y197095D01*
X267441Y197047D01*
X267438Y197043D01*
X26642D01*
X266417Y197047D01*
X266345Y197095D01*
X26626Y197112D01*
X266175Y197095D01*
X266103Y197047D01*
X266097Y197038D01*
X266047Y197054D01*
Y197087D01*
X266039Y197126D01*
X266017Y197159D01*
X265984Y197181D01*
X265945Y197189D01*
X265834D01*
Y198616D01*
X266171Y198953D01*
X266445Y198953D01*
X266457Y198951D01*
X266468Y198953D01*
X266575D01*
X266614Y198961D01*
X266647Y198983D01*
X266669Y199016D01*
X266677Y199055D01*
Y199162D01*
X266679Y199173D01*
X266677Y199185D01*
Y199488D01*
X26667Y199521D01*
X266673Y199533D01*
X2667Y199571D01*
X268344D01*
X268347Y199567D01*
X268419Y199519D01*
X268504Y199502D01*
X268589Y199519D01*
X268661Y199567D01*
X268709Y199639D01*
X268726Y199724D01*
X268709Y19981D01*
X268691Y199836D01*
X268718Y199886D01*
X268992D01*
X26902Y199858D01*
D02*
G37*
G36*
X266575Y199055D02*
X265945Y199055D01*
Y199488D01*
X266575Y199488D01*
Y199055D01*
D02*
G37*
G36*
X261816Y197614D02*
Y196932D01*
X261811Y196929D01*
X261763Y196857D01*
X261746Y196772D01*
X261761Y196699D01*
X261733Y196649D01*
X261599D01*
X259877Y19837D01*
Y198605D01*
X259927Y198631D01*
X259954Y198613D01*
X260039Y198597D01*
X260124Y198613D01*
X260197Y198662D01*
X2602Y198666D01*
X260763D01*
X261816Y197614D01*
D02*
G37*
G36*
X270748Y197441D02*
X270118Y197441D01*
Y197874D01*
X270748Y197874D01*
Y197441D01*
D02*
G37*
G36*
X275662Y195742D02*
Y192938D01*
X275658Y192937D01*
X275551D01*
X275512Y192929D01*
X275479Y192907D01*
X275457Y192874D01*
X275449Y192835D01*
Y192728D01*
X275447Y192717D01*
X275449Y192705D01*
Y192402D01*
X275457Y192363D01*
X275479Y192329D01*
X275512Y192307D01*
X275551Y1923D01*
X276146Y1923D01*
X276167Y19225D01*
X27596Y192043D01*
X271382D01*
X271367Y192093D01*
X271417Y192126D01*
X271465Y192198D01*
X271482Y192283D01*
X271465Y192369D01*
X271417Y192441D01*
X271345Y192489D01*
X271301Y192498D01*
X270777Y193022D01*
X270728Y193055D01*
X270669Y193066D01*
X268134D01*
X268066Y193134D01*
Y193383D01*
X268071Y193386D01*
X268119Y193458D01*
X268136Y193543D01*
X268119Y193628D01*
X268075Y193695D01*
X268088Y193745D01*
X26937D01*
X269429Y193756D01*
X269478Y193789D01*
X271963Y196275D01*
X271968Y196274D01*
X272054Y196291D01*
X272126Y196339D01*
X272174Y196411D01*
X272191Y196496D01*
X272174Y196581D01*
X272126Y196653D01*
X272054Y196702D01*
X271999Y196712D01*
X271983Y196767D01*
X272239Y197023D01*
X272244Y197022D01*
X272329Y197039D01*
X272401Y197087D01*
X27245Y197159D01*
X272466Y197244D01*
X27245Y197329D01*
X272401Y197401D01*
X272329Y19745D01*
X272264Y197463D01*
X272268Y197513D01*
X273892D01*
X275662Y195742D01*
D02*
G37*
G36*
X265945Y196654D02*
X265315Y196654D01*
Y197087D01*
X265945Y197087D01*
Y196654D01*
D02*
G37*
G36*
X277695Y196778D02*
X277701Y196774D01*
X277753Y196733D01*
X27785Y196694D01*
X277953Y19668D01*
X278056Y196694D01*
X278152Y196733D01*
X278205Y196774D01*
X27821Y196778D01*
X27826Y196778D01*
X278271Y196771D01*
X278283Y196764D01*
X278295Y196756D01*
X278301Y196755D01*
X278306Y196752D01*
X27832Y196751D01*
X278334Y196748D01*
X281737D01*
X281773Y196756D01*
X281782Y196742D01*
X281831Y196709D01*
X28189Y196697D01*
X285772D01*
Y194135D01*
X285722Y194118D01*
X285675Y194179D01*
X285564Y194265D01*
X285434Y194319D01*
X285295Y194337D01*
X285156Y194319D01*
X285026Y194265D01*
X284915Y194179D01*
X28483Y194068D01*
X284776Y193938D01*
X284758Y193799D01*
X284776Y19366D01*
X28483Y19353D01*
X284915Y193419D01*
X285026Y193334D01*
X285156Y19328D01*
X285295Y193262D01*
X285434Y19328D01*
X285564Y193334D01*
X285675Y193419D01*
X285722Y19348D01*
X285772Y193463D01*
Y189214D01*
X285722Y189197D01*
X285675Y189258D01*
X285564Y189344D01*
X285434Y189397D01*
X285295Y189416D01*
X285156Y189397D01*
X285026Y189344D01*
X284915Y189258D01*
X28483Y189147D01*
X284776Y189017D01*
X284758Y188878D01*
X284776Y188739D01*
X28483Y188609D01*
X284915Y188498D01*
X285026Y188412D01*
X285156Y188359D01*
X285295Y18834D01*
X285434Y188359D01*
X285564Y188412D01*
X285675Y188498D01*
X285722Y188559D01*
X285772Y188542D01*
Y184293D01*
X285722Y184276D01*
X285675Y184337D01*
X285564Y184422D01*
X285434Y184476D01*
X285295Y184494D01*
X285156Y184476D01*
X285026Y184422D01*
X284915Y184337D01*
X28483Y184226D01*
X284776Y184096D01*
X284758Y183957D01*
X284776Y183818D01*
X28483Y183688D01*
X284915Y183577D01*
X285026Y183491D01*
X285156Y183437D01*
X285295Y183419D01*
X285434Y183437D01*
X285564Y183491D01*
X285675Y183577D01*
X285722Y183637D01*
X285772Y183621D01*
Y181255D01*
X28189D01*
X281831Y181244D01*
X281782Y181211D01*
X281773Y181197D01*
X281737Y181204D01*
X279638D01*
X279633Y181254D01*
X279664Y181261D01*
X279747Y181316D01*
X279944Y181513D01*
X279999Y181595D01*
X280019Y181693D01*
Y18332D01*
X280224Y183525D01*
X281378D01*
X281476Y183544D01*
X281558Y183599D01*
X282109Y18415D01*
X282165Y184233D01*
X282184Y184331D01*
Y184639D01*
X282234Y184656D01*
X282307Y184561D01*
X282418Y184475D01*
X282548Y184422D01*
X282687Y184403D01*
X282826Y184422D01*
X282956Y184475D01*
X283067Y184561D01*
X283153Y184672D01*
X283206Y184802D01*
X283225Y184941D01*
X283206Y18508D01*
X283153Y18521D01*
X283067Y185321D01*
X282956Y185407D01*
X282826Y18546D01*
X282687Y185479D01*
X282548Y18546D01*
X282418Y185407D01*
X282307Y185321D01*
X282221Y18521D01*
X282194Y185144D01*
X282138Y185138D01*
X282109Y18518D01*
X281941Y185348D01*
X281964Y185396D01*
X282028Y185388D01*
X282167Y185406D01*
X282296Y18546D01*
X282408Y185545D01*
X282493Y185656D01*
X282547Y185786D01*
X282565Y185925D01*
X282547Y186064D01*
X282493Y186194D01*
X282408Y186305D01*
X282296Y186391D01*
X282167Y186445D01*
X282028Y186463D01*
X281888Y186445D01*
X281759Y186391D01*
X281647Y186305D01*
X281562Y186194D01*
X281508Y186064D01*
X28149Y185925D01*
X281498Y185862D01*
X281451Y185839D01*
X280412Y186877D01*
Y187493D01*
X280692Y187773D01*
X281164Y188245D01*
X28122Y188328D01*
X281239Y188425D01*
Y189488D01*
X281225Y189561D01*
X281259Y189611D01*
X281336D01*
X281339Y189607D01*
X281411Y189558D01*
X281496Y189541D01*
X281581Y189558D01*
X281653Y189607D01*
X281702Y189679D01*
X281718Y189764D01*
X281702Y189849D01*
X281653Y189921D01*
X281581Y189969D01*
X281496Y189986D01*
X281411Y189969D01*
X281339Y189921D01*
X281336Y189917D01*
X280086D01*
X280065Y189967D01*
X281959Y19186D01*
X281992Y19191D01*
X282003Y191968D01*
Y192598D01*
X281992Y192657D01*
X281959Y192707D01*
X281649Y193016D01*
Y194643D01*
X281653Y194646D01*
X281702Y194718D01*
X281718Y194803D01*
X281702Y194888D01*
X281653Y19496D01*
X281581Y195009D01*
X281496Y195026D01*
X281411Y195009D01*
X281339Y19496D01*
X281291Y194888D01*
X281274Y194803D01*
X281291Y194718D01*
X281339Y194646D01*
X281343Y194643D01*
Y192953D01*
X281355Y192894D01*
X281388Y192845D01*
X281697Y192535D01*
Y192032D01*
X280496Y19083D01*
X280449Y190855D01*
X280452Y190866D01*
X280432Y190964D01*
X280377Y191046D01*
X280334Y19109D01*
Y192552D01*
X280653Y192871D01*
X280708Y192954D01*
X280727Y193051D01*
X280708Y193149D01*
X280653Y193231D01*
X28057Y193287D01*
X280472Y193306D01*
X280375Y193287D01*
X280292Y193231D01*
X279898Y192838D01*
X279843Y192755D01*
X279824Y192657D01*
Y190984D01*
X279843Y190887D01*
X279898Y190804D01*
X280017Y190686D01*
X280099Y190631D01*
X280197Y190611D01*
X280208Y190614D01*
X280233Y190567D01*
X279858Y190192D01*
X277543D01*
Y194639D01*
X277557Y194683D01*
X277593Y194683D01*
X278348D01*
Y195474D01*
X277593D01*
X277557Y195474D01*
X277543Y195518D01*
Y195905D01*
X277593Y195915D01*
X277607Y195879D01*
X277671Y195797D01*
X277753Y195733D01*
X27785Y195694D01*
X277953Y19568D01*
X278056Y195694D01*
X278152Y195733D01*
X278235Y195797D01*
X278298Y195879D01*
X278338Y195976D01*
X278351Y196079D01*
X278338Y196182D01*
X278298Y196278D01*
X278235Y196361D01*
X278152Y196424D01*
X278056Y196464D01*
X277953Y196477D01*
X27785Y196464D01*
X277753Y196424D01*
X277671Y196361D01*
X277607Y196278D01*
X277593Y196243D01*
X277543Y196253D01*
Y196748D01*
X277571D01*
X277585Y196751D01*
X277599Y196752D01*
X277605Y196755D01*
X27761Y196756D01*
X277622Y196764D01*
X277635Y196771D01*
X277645Y196778D01*
X277695Y196778D01*
D02*
G37*
G36*
X266761Y19493D02*
X266467Y194636D01*
X266434Y194586D01*
X266422Y194528D01*
Y194134D01*
X266434Y194075D01*
X266467Y194026D01*
X26654Y193952D01*
Y193355D01*
X266501Y193324D01*
X266457Y193333D01*
X26639Y193319D01*
X266387Y193321D01*
X266353Y193355D01*
X266351Y193359D01*
X266364Y193425D01*
X266347Y19351D01*
X266299Y193582D01*
X266227Y193631D01*
X266142Y193648D01*
X266057Y193631D01*
X265984Y193582D01*
X265982Y193578D01*
X265597D01*
X265585Y193594D01*
X265574Y193626D01*
X265883Y193934D01*
X265916Y193984D01*
X265928Y194042D01*
Y194864D01*
X265978Y194905D01*
X266024Y194896D01*
X266109Y194913D01*
X266181Y194961D01*
X266191Y194976D01*
X266741D01*
X266761Y19493D01*
D02*
G37*
G36*
X268603Y19489D02*
X268613Y194836D01*
X268662Y194764D01*
X268734Y194716D01*
X268819Y194699D01*
X268904Y194716D01*
X268976Y194764D01*
X268979Y194768D01*
X269921D01*
X269962Y194776D01*
X269986Y19473D01*
X269307Y194051D01*
X267916D01*
X267913Y194055D01*
X267841Y194103D01*
X267813Y194109D01*
X267798Y194157D01*
X268548Y194907D01*
X268603Y19489D01*
D02*
G37*
G36*
X276181Y192402D02*
X275551Y192402D01*
Y192835D01*
X276181Y192835D01*
Y192402D01*
D02*
G37*
G36*
X270841Y191817D02*
X27082Y191767D01*
X269491D01*
X269488Y191771D01*
X269416Y19182D01*
X269331Y191837D01*
X269246Y19182D01*
X269179Y191775D01*
X269129Y191789D01*
Y192107D01*
X26918Y192117D01*
X269252Y192166D01*
X2693Y192238D01*
X269317Y192323D01*
X2693Y192408D01*
X269256Y192474D01*
X269269Y192524D01*
X270133D01*
X270841Y191817D01*
D02*
G37*
G36*
X276081Y191415D02*
X27596Y191295D01*
X269315D01*
X269254Y191356D01*
X269279Y191402D01*
X269331Y191392D01*
X269416Y191409D01*
X269488Y191457D01*
X269491Y191461D01*
X276062D01*
X276081Y191415D01*
D02*
G37*
G36*
X265984Y193268D02*
X266057Y19322D01*
X266142Y193203D01*
X266208Y193216D01*
X266212Y193214D01*
X266246Y19318D01*
X266248Y193177D01*
X266234Y19311D01*
X266248Y193039D01*
X264398Y191189D01*
X264352Y191208D01*
Y191834D01*
X263381D01*
X263357Y191881D01*
X263685Y192209D01*
X264528D01*
X264586Y192221D01*
X264636Y192254D01*
X265654Y193272D01*
X265982D01*
X265984Y193268D01*
D02*
G37*
G36*
X263365Y191818D02*
Y191063D01*
X264207D01*
X264226Y191017D01*
X263113Y189904D01*
X263066Y189923D01*
Y19159D01*
X263318Y191841D01*
X263365Y191818D01*
D02*
G37*
G36*
X277441Y188189D02*
X276181Y186929D01*
X275743Y186492D01*
X272268D01*
X269197Y189563D01*
X269207Y189595D01*
X269219Y189611D01*
X277441D01*
Y188189D01*
D02*
G37*
G36*
X272097Y18623D02*
X272146Y186197D01*
X272205Y186186D01*
X275372D01*
X275391Y186139D01*
X275236Y185984D01*
Y185392D01*
X272698D01*
X271661Y186429D01*
X271702Y18649D01*
X271712Y186544D01*
X271767Y18656D01*
X272097Y18623D01*
D02*
G37*
G36*
X280744Y189561D02*
X280729Y189488D01*
Y188531D01*
X280332Y188133D01*
X279977Y187779D01*
X279922Y187696D01*
X279903Y187598D01*
Y186772D01*
X279922Y186674D01*
X279977Y186591D01*
X281432Y185137D01*
X281418Y185089D01*
X281411Y185087D01*
X281339Y185039D01*
X281336Y185035D01*
X279552D01*
X27814Y186447D01*
X27809Y18648D01*
X278032Y186492D01*
X275953D01*
X275934Y186538D01*
X276253Y186857D01*
X277513Y188117D01*
X277535Y18815D01*
X277543Y188189D01*
Y189611D01*
X28071D01*
X280744Y189561D01*
D02*
G37*
G36*
X27938Y184774D02*
X27943Y184741D01*
X279488Y184729D01*
X281336D01*
X281339Y184725D01*
X281411Y184676D01*
X281496Y18466D01*
X281581Y184676D01*
X281624Y184705D01*
X281674Y184678D01*
Y184436D01*
X281272Y184034D01*
X280118D01*
X280021Y184015D01*
X279938Y18396D01*
X279584Y183605D01*
X279528Y183523D01*
X279509Y183425D01*
Y181798D01*
X279461Y181751D01*
X279291D01*
X279194Y181732D01*
X279111Y181676D01*
X279056Y181594D01*
X279036Y181496D01*
X279056Y181399D01*
X279111Y181316D01*
X279194Y181261D01*
X279225Y181254D01*
X27922Y181204D01*
X278115D01*
X278096Y181251D01*
X278695Y181849D01*
X278743Y181912D01*
X278773Y181985D01*
X278783Y182063D01*
Y182856D01*
X278843Y182934D01*
X278885Y183035D01*
X278899Y183144D01*
X278885Y183252D01*
X278843Y183353D01*
X278777Y18344D01*
X27869Y183506D01*
X278589Y183548D01*
X278481Y183562D01*
X278372Y183548D01*
X278271Y183506D01*
X278185Y18344D01*
X278118Y183353D01*
X278076Y183252D01*
X278062Y183144D01*
X278076Y183035D01*
X278118Y182934D01*
X278178Y182856D01*
Y182189D01*
X277279Y18129D01*
X277279Y18129D01*
X277159Y181411D01*
X276017Y182552D01*
X275984Y182575D01*
X275945Y182582D01*
X275338D01*
Y185086D01*
X276563D01*
X276588Y185027D01*
X276655Y184939D01*
X276743Y184872D01*
X276845Y18483D01*
X276955Y184815D01*
X277064Y18483D01*
X277166Y184872D01*
X277254Y184939D01*
X277321Y185027D01*
X277364Y185129D01*
X277378Y185239D01*
X277364Y185349D01*
X277321Y185451D01*
X277254Y185539D01*
X277166Y185606D01*
X277064Y185648D01*
X276955Y185663D01*
X276845Y185648D01*
X276743Y185606D01*
X276655Y185539D01*
X276588Y185451D01*
X276563Y185392D01*
X275338D01*
Y185942D01*
X275464Y186067D01*
X275486Y1861D01*
X275493Y186139D01*
X275517Y186173D01*
X275535Y186186D01*
X277968D01*
X27938Y184774D01*
D02*
G37*
G36*
X261417Y182913D02*
X260315D01*
Y18374D01*
X261417D01*
Y182913D01*
D02*
G37*
%LPC*%
G36*
X253746Y204239D02*
X252946D01*
Y203139D01*
X253746D01*
Y204239D01*
D02*
G37*
G36*
X256346Y204242D02*
X256242Y204229D01*
X256145Y204188D01*
X256061Y204124D01*
X255997Y204041D01*
X255957Y203943D01*
X255943Y203839D01*
Y203539D01*
X255957Y203435D01*
X255997Y203337D01*
X256061Y203254D01*
X256145Y20319D01*
X256242Y203149D01*
X256346Y203136D01*
X256451Y203149D01*
X256548Y20319D01*
X256632Y203254D01*
X256696Y203337D01*
X256736Y203435D01*
X25675Y203539D01*
Y203839D01*
X256736Y203943D01*
X256696Y204041D01*
X256632Y204124D01*
X256548Y204188D01*
X256451Y204229D01*
X256346Y204242D01*
D02*
G37*
G36*
X255346D02*
X255242Y204229D01*
X255145Y204188D01*
X255061Y204124D01*
X254997Y204041D01*
X254957Y203943D01*
X254943Y203839D01*
Y203539D01*
X254957Y203435D01*
X254997Y203337D01*
X255061Y203254D01*
X255145Y20319D01*
X255242Y203149D01*
X255346Y203136D01*
X255451Y203149D01*
X255548Y20319D01*
X255632Y203254D01*
X255696Y203337D01*
X255736Y203435D01*
X25575Y203539D01*
Y203839D01*
X255736Y203943D01*
X255696Y204041D01*
X255632Y204124D01*
X255548Y204188D01*
X255451Y204229D01*
X255346Y204242D01*
D02*
G37*
G36*
X254346D02*
X254242Y204229D01*
X254145Y204188D01*
X254061Y204124D01*
X253997Y204041D01*
X253957Y203943D01*
X253943Y203839D01*
Y203539D01*
X253957Y203435D01*
X253997Y203337D01*
X254061Y203254D01*
X254145Y20319D01*
X254242Y203149D01*
X254346Y203136D01*
X254451Y203149D01*
X254548Y20319D01*
X254632Y203254D01*
X254696Y203337D01*
X254736Y203435D01*
X25475Y203539D01*
Y203839D01*
X254736Y203943D01*
X254696Y204041D01*
X254632Y204124D01*
X254548Y204188D01*
X254451Y204229D01*
X254346Y204242D01*
D02*
G37*
G36*
X275984Y202988D02*
X275873Y202973D01*
X27577Y20293D01*
X275681Y202862D01*
X275613Y202773D01*
X27557Y20267D01*
X275556Y202559D01*
X27557Y202448D01*
X275613Y202345D01*
X275681Y202256D01*
X27577Y202188D01*
X275873Y202145D01*
X275984Y202131D01*
X276095Y202145D01*
X276198Y202188D01*
X276287Y202256D01*
X276355Y202345D01*
X276398Y202448D01*
X276413Y202559D01*
X276398Y20267D01*
X276355Y202773D01*
X276287Y202862D01*
X276198Y20293D01*
X276095Y202973D01*
X275984Y202988D01*
D02*
G37*
G36*
X274016Y202988D02*
X273905Y202973D01*
X273802Y20293D01*
X273713Y202862D01*
X273645Y202773D01*
X273602Y20267D01*
X273587Y202559D01*
X273602Y202448D01*
X273645Y202345D01*
X273713Y202256D01*
X273802Y202188D01*
X273905Y202145D01*
X274016Y202131D01*
X274127Y202145D01*
X27423Y202188D01*
X274319Y202256D01*
X274387Y202345D01*
X27443Y202448D01*
X274444Y202559D01*
X27443Y20267D01*
X274387Y202773D01*
X274319Y202862D01*
X27423Y20293D01*
X274127Y202973D01*
X274016Y202988D01*
D02*
G37*
G36*
X270079Y202594D02*
X269968Y202579D01*
X269865Y202536D01*
X269776Y202468D01*
X269708Y20238D01*
X269665Y202276D01*
X26965Y202165D01*
X269665Y202054D01*
X269708Y201951D01*
X269776Y201862D01*
X269865Y201794D01*
X269968Y201751D01*
X270079Y201737D01*
X27019Y201751D01*
X270293Y201794D01*
X270382Y201862D01*
X27045Y201951D01*
X270493Y202054D01*
X270507Y202165D01*
X270493Y202276D01*
X27045Y20238D01*
X270382Y202468D01*
X270293Y202536D01*
X27019Y202579D01*
X270079Y202594D01*
D02*
G37*
G36*
X268209D02*
X268098Y202579D01*
X267994Y202536D01*
X267906Y202468D01*
X267838Y20238D01*
X267795Y202276D01*
X26778Y202165D01*
X267795Y202054D01*
X267838Y201951D01*
X267906Y201862D01*
X267994Y201794D01*
X268098Y201751D01*
X268209Y201737D01*
X26832Y201751D01*
X268423Y201794D01*
X268512Y201862D01*
X26858Y201951D01*
X268623Y202054D01*
X268637Y202165D01*
X268623Y202276D01*
X26858Y20238D01*
X268512Y202468D01*
X268423Y202536D01*
X26832Y202579D01*
X268209Y202594D01*
D02*
G37*
G36*
X280315Y203844D02*
X280145Y20383D01*
X279979Y20379D01*
X279821Y203725D01*
X279676Y203636D01*
X279546Y203525D01*
X279435Y203395D01*
X279346Y20325D01*
X279281Y203092D01*
X279241Y202926D01*
X279227Y202756D01*
X279241Y202586D01*
X279281Y20242D01*
X279346Y202262D01*
X279435Y202117D01*
X279546Y201987D01*
X279676Y201876D01*
X279821Y201787D01*
X279979Y201722D01*
X280145Y201682D01*
X280315Y201668D01*
X280485Y201682D01*
X280651Y201722D01*
X280809Y201787D01*
X280954Y201876D01*
X281084Y201987D01*
X281195Y202117D01*
X281284Y202262D01*
X281349Y20242D01*
X281389Y202586D01*
X281403Y202756D01*
X281389Y202926D01*
X281349Y203092D01*
X281284Y20325D01*
X281195Y203395D01*
X281084Y203525D01*
X280954Y203636D01*
X280809Y203725D01*
X280651Y20379D01*
X280485Y20383D01*
X280315Y203844D01*
D02*
G37*
G36*
X249606D02*
X249436Y20383D01*
X24927Y20379D01*
X249113Y203725D01*
X248967Y203636D01*
X248837Y203525D01*
X248726Y203395D01*
X248637Y20325D01*
X248572Y203092D01*
X248532Y202926D01*
X248519Y202756D01*
X248532Y202586D01*
X248572Y20242D01*
X248637Y202262D01*
X248726Y202117D01*
X248837Y201987D01*
X248967Y201876D01*
X249113Y201787D01*
X24927Y201722D01*
X249436Y201682D01*
X249606Y201668D01*
X249776Y201682D01*
X249942Y201722D01*
X2501Y201787D01*
X250246Y201876D01*
X250375Y201987D01*
X250486Y202117D01*
X250575Y202262D01*
X250641Y20242D01*
X250681Y202586D01*
X250694Y202756D01*
X250681Y202926D01*
X250641Y203092D01*
X250575Y20325D01*
X250486Y203395D01*
X250375Y203525D01*
X250246Y203636D01*
X2501Y203725D01*
X249942Y20379D01*
X249776Y20383D01*
X249606Y203844D01*
D02*
G37*
G36*
X270079Y201594D02*
X269968Y201579D01*
X269865Y201536D01*
X269776Y201468D01*
X269708Y20138D01*
X269665Y201276D01*
X26965Y201165D01*
X269665Y201054D01*
X269708Y200951D01*
X269776Y200862D01*
X269865Y200794D01*
X269968Y200751D01*
X270079Y200737D01*
X27019Y200751D01*
X270293Y200794D01*
X270382Y200862D01*
X27045Y200951D01*
X270493Y201054D01*
X270507Y201165D01*
X270493Y201276D01*
X27045Y20138D01*
X270382Y201468D01*
X270293Y201536D01*
X27019Y201579D01*
X270079Y201594D01*
D02*
G37*
G36*
X268209D02*
X268098Y201579D01*
X267994Y201536D01*
X267906Y201468D01*
X267838Y20138D01*
X267795Y201276D01*
X26778Y201165D01*
X267795Y201054D01*
X267838Y200951D01*
X267906Y200862D01*
X267994Y200794D01*
X268098Y200751D01*
X268209Y200737D01*
X26832Y200751D01*
X268423Y200794D01*
X268512Y200862D01*
X26858Y200951D01*
X268623Y201054D01*
X268637Y201165D01*
X268623Y201276D01*
X26858Y20138D01*
X268512Y201468D01*
X268423Y201536D01*
X26832Y201579D01*
X268209Y201594D01*
D02*
G37*
G36*
X262205Y201522D02*
X26212Y201505D01*
X262047Y201456D01*
X261999Y201384D01*
X261982Y201299D01*
X261999Y201214D01*
X262047Y201142D01*
X262052Y201139D01*
Y200966D01*
X261908D01*
Y200176D01*
X262502D01*
Y200966D01*
X262358D01*
Y201139D01*
X262362Y201142D01*
X26241Y201214D01*
X262427Y201299D01*
X26241Y201384D01*
X262362Y201456D01*
X26229Y201505D01*
X262205Y201522D01*
D02*
G37*
G36*
X277953Y200477D02*
X27785Y200464D01*
X277753Y200424D01*
X277671Y200361D01*
X277607Y200278D01*
X277568Y200182D01*
X277554Y200079D01*
X277568Y199976D01*
X277607Y199879D01*
X277671Y199797D01*
X277753Y199733D01*
X27785Y199694D01*
X277953Y19968D01*
X278056Y199694D01*
X278152Y199733D01*
X278235Y199797D01*
X278298Y199879D01*
X278338Y199976D01*
X278351Y200079D01*
X278338Y200182D01*
X278298Y200278D01*
X278235Y200361D01*
X278152Y200424D01*
X278056Y200464D01*
X277953Y200477D01*
D02*
G37*
G36*
X258268Y203215D02*
X258183Y203198D01*
X25811Y203149D01*
X258062Y203077D01*
X258045Y202992D01*
X258062Y202907D01*
X25811Y202835D01*
X258115Y202832D01*
Y202777D01*
X257981D01*
Y202197D01*
X257981Y202147D01*
X257981Y202134D01*
Y201554D01*
X258115D01*
Y199449D01*
X258126Y19939D01*
X25816Y199341D01*
X258676Y198824D01*
X258675Y198819D01*
X258692Y198734D01*
X25874Y198662D01*
X258813Y198613D01*
X258898Y198597D01*
X258983Y198613D01*
X259055Y198662D01*
X259103Y198734D01*
X25912Y198819D01*
X259103Y198904D01*
X259055Y198976D01*
X258983Y199024D01*
X258898Y199041D01*
X258893Y19904D01*
X258421Y199512D01*
Y201554D01*
X258555D01*
Y202133D01*
X258555Y202183D01*
X258555Y202197D01*
Y202777D01*
X258421D01*
Y202832D01*
X258425Y202835D01*
X258473Y202907D01*
X25849Y202992D01*
X258473Y203077D01*
X258425Y203149D01*
X258353Y203198D01*
X258268Y203215D01*
D02*
G37*
G36*
X277953Y198477D02*
X27785Y198464D01*
X277753Y198424D01*
X277671Y198361D01*
X277607Y198278D01*
X277568Y198182D01*
X277554Y198079D01*
X277568Y197976D01*
X277607Y197879D01*
X277671Y197797D01*
X277753Y197733D01*
X27785Y197694D01*
X277953Y19768D01*
X278056Y197694D01*
X278152Y197733D01*
X278235Y197797D01*
X278298Y197879D01*
X278338Y197976D01*
X278351Y198079D01*
X278338Y198182D01*
X278298Y198278D01*
X278235Y198361D01*
X278152Y198424D01*
X278056Y198464D01*
X277953Y198477D01*
D02*
G37*
G36*
X258346Y197466D02*
X258261Y197449D01*
X258189Y197401D01*
X258186Y197397D01*
X256971D01*
X256968Y197401D01*
X256896Y197449D01*
X256811Y197466D01*
X256726Y197449D01*
X256654Y197401D01*
X256606Y197329D01*
X256589Y197244D01*
X256606Y197159D01*
X256654Y197087D01*
X256726Y197039D01*
X256811Y197022D01*
X256896Y197039D01*
X256968Y197087D01*
X256971Y197091D01*
X258186D01*
X258189Y197087D01*
X258261Y197039D01*
X258346Y197022D01*
X258432Y197039D01*
X258504Y197087D01*
X258552Y197159D01*
X258569Y197244D01*
X258552Y197329D01*
X258504Y197401D01*
X258432Y197449D01*
X258346Y197466D01*
D02*
G37*
G36*
X255848Y196372D02*
X25427D01*
Y19627D01*
X254268Y19626D01*
Y19571D01*
X25427Y1957D01*
Y19562D01*
X254324D01*
X254331Y195616D01*
X25437Y195608D01*
X259922D01*
X259961Y195616D01*
X259995Y195638D01*
X260017Y195671D01*
X260024Y19571D01*
Y19626D01*
X260017Y196299D01*
X259995Y196332D01*
X259961Y196354D01*
X259922Y196362D01*
X255848D01*
Y196372D01*
D02*
G37*
G36*
Y195372D02*
X25427D01*
Y19462D01*
X254334D01*
X254341Y194616D01*
X25438Y194608D01*
X25988D01*
X259919Y194616D01*
X259952Y194638D01*
X259974Y194671D01*
X259982Y19471D01*
Y19526D01*
X259974Y195299D01*
X259952Y195332D01*
X259919Y195354D01*
X25988Y195362D01*
X255848D01*
Y195372D01*
D02*
G37*
G36*
X258797Y193783D02*
X258712Y193766D01*
X25864Y193718D01*
X258637Y193714D01*
X254001D01*
X253998Y193718D01*
X253926Y193766D01*
X253841Y193783D01*
X253756Y193766D01*
X253683Y193718D01*
X253635Y193646D01*
X253618Y193561D01*
X253635Y193476D01*
X253683Y193404D01*
X253756Y193355D01*
X253841Y193338D01*
X253926Y193355D01*
X253998Y193404D01*
X254001Y193408D01*
X258637D01*
X25864Y193404D01*
X258712Y193355D01*
X258797Y193338D01*
X258882Y193355D01*
X258954Y193404D01*
X259003Y193476D01*
X259019Y193561D01*
X259003Y193646D01*
X258954Y193718D01*
X258882Y193766D01*
X258797Y193783D01*
D02*
G37*
G36*
X262756Y193096D02*
X262671Y193079D01*
X262599Y193031D01*
X26255Y192959D01*
X262534Y192874D01*
X26255Y192789D01*
X262599Y192717D01*
X262671Y192669D01*
X262756Y192652D01*
X262841Y192669D01*
X262913Y192717D01*
X262916Y192721D01*
X263738D01*
X26374Y192717D01*
X263813Y192669D01*
X263898Y192652D01*
X263983Y192669D01*
X264055Y192717D01*
X264103Y192789D01*
X26412Y192874D01*
X264103Y192959D01*
X264055Y193031D01*
X263983Y193079D01*
X263898Y193096D01*
X263813Y193079D01*
X26374Y193031D01*
X263738Y193027D01*
X262916D01*
X262913Y193031D01*
X262841Y193079D01*
X262756Y193096D01*
D02*
G37*
G36*
X248624Y192541D02*
X24803D01*
Y191928D01*
X248624D01*
Y192541D01*
D02*
G37*
G36*
X261084Y191834D02*
X260097D01*
Y191063D01*
X261084D01*
Y191834D01*
D02*
G37*
G36*
X259331Y191285D02*
X259246Y191268D01*
X259173Y19122D01*
X259125Y191148D01*
X259108Y191063D01*
X259125Y190978D01*
X259173Y190906D01*
X259246Y190858D01*
X259331Y190841D01*
X259336Y190842D01*
X259695Y190482D01*
X259745Y190449D01*
X259803Y190438D01*
X260194D01*
X260197Y190433D01*
X260269Y190385D01*
X260354Y190368D01*
X260439Y190385D01*
X260512Y190433D01*
X26056Y190505D01*
X260577Y190591D01*
X26056Y190676D01*
X260512Y190748D01*
X260439Y190796D01*
X260354Y190813D01*
X260269Y190796D01*
X260197Y190748D01*
X260194Y190743D01*
X259867D01*
X259552Y191058D01*
X259553Y191063D01*
X259536Y191148D01*
X259488Y19122D01*
X259416Y191268D01*
X259331Y191285D01*
D02*
G37*
G36*
X248327Y191383D02*
X248236Y191371D01*
X248163Y19134D01*
X24803D01*
Y191215D01*
X248024Y191208D01*
X24799Y191124D01*
X247978Y191033D01*
Y189331D01*
X247975Y189328D01*
X247896Y189225D01*
X247846Y189105D01*
X247829Y188976D01*
X247846Y188848D01*
X247896Y188727D01*
X247975Y188624D01*
X248078Y188545D01*
X248198Y188495D01*
X248327Y188478D01*
X248456Y188495D01*
X248576Y188545D01*
X248679Y188624D01*
X248758Y188727D01*
X248808Y188848D01*
X248825Y188976D01*
X248808Y189105D01*
X248758Y189225D01*
X248679Y189328D01*
X248676Y189331D01*
Y191033D01*
X248664Y191124D01*
X248629Y191208D01*
X248624Y191215D01*
Y19134D01*
X248491D01*
X248417Y191371D01*
X248327Y191383D01*
D02*
G37*
G36*
X269932Y186934D02*
X269823Y18692D01*
X269723Y186878D01*
X269636Y186812D01*
X269569Y186725D01*
X269528Y186624D01*
X269513Y186516D01*
X269528Y186407D01*
X269569Y186306D01*
X269636Y18622D01*
X269723Y186153D01*
X269823Y186111D01*
X269932Y186097D01*
X27004Y186111D01*
X270141Y186153D01*
X270228Y18622D01*
X270294Y186306D01*
X270336Y186407D01*
X27035Y186516D01*
X270336Y186624D01*
X270294Y186725D01*
X270228Y186812D01*
X270141Y186878D01*
X27004Y18692D01*
X269932Y186934D01*
D02*
G37*
G36*
X268012D02*
X267903Y18692D01*
X267803Y186878D01*
X267716Y186812D01*
X267649Y186725D01*
X267608Y186624D01*
X267593Y186516D01*
X267608Y186407D01*
X267649Y186306D01*
X267716Y18622D01*
X267803Y186153D01*
X267903Y186111D01*
X268012Y186097D01*
X26812Y186111D01*
X268221Y186153D01*
X268308Y18622D01*
X268374Y186306D01*
X268416Y186407D01*
X26843Y186516D01*
X268416Y186624D01*
X268374Y186725D01*
X268308Y186812D01*
X268221Y186878D01*
X26812Y18692D01*
X268012Y186934D01*
D02*
G37*
G36*
X264352Y186496D02*
X263365D01*
Y185725D01*
X264352D01*
Y186496D01*
D02*
G37*
G36*
X261084D02*
X260097D01*
Y185725D01*
X261084D01*
Y186496D01*
D02*
G37*
G36*
X277129Y179556D02*
X277004Y179539D01*
X276887Y179491D01*
X276787Y179414D01*
X276756Y179374D01*
X275489D01*
X275489Y179374D01*
X275411Y179364D01*
X275338Y179334D01*
X275275Y179286D01*
X275275Y179286D01*
X274884Y178895D01*
X274836Y178832D01*
X274806Y178759D01*
X274796Y178681D01*
Y178013D01*
X274699D01*
X274581Y177998D01*
X274472Y177952D01*
X274378Y17788D01*
X274305Y177786D01*
X27426Y177677D01*
X274245Y177559D01*
X27426Y177441D01*
X274305Y177332D01*
X274378Y177238D01*
X274472Y177166D01*
X274581Y17712D01*
X274699Y177105D01*
X275498D01*
X275616Y17712D01*
X275725Y177166D01*
X275819Y177238D01*
X275891Y177332D01*
X275937Y177441D01*
X275952Y177559D01*
X275937Y177677D01*
X275891Y177786D01*
X275819Y17788D01*
X275725Y177952D01*
X275616Y177998D01*
X275498Y178013D01*
X275401D01*
Y178556D01*
X275614Y178769D01*
X276756D01*
X276787Y178729D01*
X276887Y178652D01*
X277004Y178604D01*
X277129Y178588D01*
X277254Y178604D01*
X277371Y178652D01*
X277471Y178729D01*
X277548Y17883D01*
X277597Y178946D01*
X277613Y179072D01*
X277597Y179197D01*
X277548Y179314D01*
X277471Y179414D01*
X277371Y179491D01*
X277254Y179539D01*
X277129Y179556D01*
D02*
G37*
G36*
X255917Y177586D02*
X255807Y177572D01*
X255705Y177529D01*
X255617Y177462D01*
X25555Y177374D01*
X255508Y177272D01*
X255493Y177163D01*
X255508Y177053D01*
X25555Y176951D01*
X255617Y176863D01*
X255705Y176796D01*
X255807Y176753D01*
X255917Y176739D01*
X256026Y176753D01*
X256129Y176796D01*
X256216Y176863D01*
X256284Y176951D01*
X256326Y177053D01*
X25634Y177163D01*
X256326Y177272D01*
X256284Y177374D01*
X256216Y177462D01*
X256129Y177529D01*
X256026Y177572D01*
X255917Y177586D01*
D02*
G37*
G36*
X255494Y176271D02*
X25548Y176271D01*
X2549D01*
Y175697D01*
X255044D01*
Y175197D01*
X255056Y175138D01*
X255089Y175089D01*
X255153Y175025D01*
X255152Y17502D01*
X255169Y174935D01*
X255217Y174862D01*
X255289Y174814D01*
X255374Y174797D01*
X255459Y174814D01*
X255531Y174862D01*
X255579Y174935D01*
X255596Y17502D01*
X255579Y175105D01*
X255531Y175177D01*
X255459Y175225D01*
X255374Y175242D01*
X25535Y175284D01*
Y175697D01*
X25548D01*
X25553Y175697D01*
X255544Y175697D01*
X256124D01*
Y175729D01*
X25626D01*
X256357Y175749D01*
X25644Y175804D01*
X25644Y175804D01*
X256495Y175887D01*
X256515Y175984D01*
X256495Y176082D01*
X25644Y176164D01*
X256357Y17622D01*
X25626Y176239D01*
X25626Y176239D01*
X256124D01*
Y176271D01*
X255544D01*
X255512Y176271D01*
X255494Y176271D01*
D02*
G37*
G36*
X279958Y179556D02*
X279832Y179539D01*
X279715Y179491D01*
X279615Y179414D01*
X279538Y179314D01*
X27949Y179197D01*
X279473Y179072D01*
X27949Y178946D01*
X279538Y17883D01*
X279615Y178729D01*
X279655Y178699D01*
Y177327D01*
X277827Y175499D01*
X275834D01*
X275819Y175518D01*
X275725Y17559D01*
X275616Y175636D01*
X275498Y175651D01*
X274699D01*
X274581Y175636D01*
X274472Y17559D01*
X274378Y175518D01*
X274363Y175499D01*
X273551D01*
X27345Y1756D01*
X273451Y175657D01*
X273523Y175751D01*
X273569Y175861D01*
X273584Y175978D01*
Y176778D01*
X273569Y176895D01*
X273523Y177005D01*
X273451Y177099D01*
X273357Y177171D01*
X273248Y177216D01*
X27313Y177232D01*
X273012Y177216D01*
X272903Y177171D01*
X272809Y177099D01*
X272736Y177005D01*
X272691Y176895D01*
X272676Y176778D01*
Y175978D01*
X272691Y175861D01*
X272736Y175751D01*
X272809Y175657D01*
X272827Y175643D01*
Y175492D01*
X272838Y175414D01*
X272868Y175341D01*
X272916Y175278D01*
X273211Y174983D01*
X273274Y174935D01*
X273347Y174905D01*
X273425Y174894D01*
X274363D01*
X274378Y174876D01*
X274472Y174803D01*
X274581Y174758D01*
X274699Y174743D01*
X275498D01*
X275616Y174758D01*
X275725Y174803D01*
X275819Y174876D01*
X275834Y174894D01*
X277953D01*
X278031Y174905D01*
X278104Y174935D01*
X278167Y174983D01*
X280171Y176988D01*
X28022Y17705D01*
X28025Y177123D01*
X28026Y177202D01*
Y178699D01*
X2803Y178729D01*
X280377Y17883D01*
X280425Y178946D01*
X280442Y179072D01*
X280425Y179197D01*
X280377Y179314D01*
X2803Y179414D01*
X2802Y179491D01*
X280083Y179539D01*
X279958Y179556D01*
D02*
G37*
G36*
X26595Y177462D02*
X26535D01*
Y176988D01*
X265347Y176968D01*
X26535Y176949D01*
Y176475D01*
X26595D01*
Y176587D01*
X266253D01*
X266636Y176203D01*
X266699Y176155D01*
X266772Y176125D01*
X26685Y176115D01*
X266929Y176125D01*
X267002Y176155D01*
X267015Y176166D01*
X267065Y176141D01*
Y175156D01*
X268998D01*
Y176222D01*
X267134D01*
X267133Y176225D01*
X267115Y176272D01*
X267143Y176339D01*
X267153Y176417D01*
X267143Y176496D01*
X267112Y176569D01*
X267064Y176631D01*
X266592Y177104D01*
X266529Y177152D01*
X266456Y177182D01*
X266378Y177192D01*
X26595D01*
Y177462D01*
D02*
G37*
G36*
X249213Y182604D02*
X249104Y182589D01*
X249003Y182548D01*
X248917Y182481D01*
X24885Y182394D01*
X248808Y182293D01*
X248794Y182185D01*
Y181004D01*
X248808Y180896D01*
X24885Y180795D01*
X24891Y180717D01*
Y178543D01*
X24892Y178465D01*
X248951Y178392D01*
X248999Y178329D01*
X250377Y176951D01*
X250377Y176951D01*
X250439Y176903D01*
X250512Y176873D01*
X250591Y176863D01*
X254497D01*
Y176743D01*
X255337D01*
Y177583D01*
X255219D01*
Y177779D01*
X255248Y177808D01*
X257867D01*
X258162Y177512D01*
Y175315D01*
X258172Y175237D01*
X258203Y175164D01*
X258251Y175101D01*
X258313Y175053D01*
X258386Y175023D01*
X258404Y17502D01*
X258425Y175016D01*
X258436D01*
X258465Y175012D01*
X258493Y175016D01*
X258819D01*
X258858Y175024D01*
X258891Y175046D01*
X25897Y175125D01*
X258992Y175158D01*
X259Y175197D01*
Y175827D01*
X258992Y175866D01*
X25897Y175899D01*
X25893Y175938D01*
X258897Y17596D01*
X258858Y175968D01*
X258767D01*
Y177638D01*
X258757Y177716D01*
X258727Y177789D01*
X258679Y177852D01*
X258679Y177852D01*
X258206Y178324D01*
X258143Y178372D01*
X25807Y178403D01*
X257992Y178413D01*
X255123D01*
X255044Y178403D01*
X254971Y178372D01*
X254909Y178324D01*
X254722Y178137D01*
X254703Y178123D01*
X254655Y17806D01*
X254625Y177987D01*
X254614Y177909D01*
Y177583D01*
X254497D01*
Y177468D01*
X250716D01*
X249515Y178669D01*
Y180717D01*
X249575Y180795D01*
X249617Y180896D01*
X249631Y181004D01*
Y182185D01*
X249617Y182293D01*
X249575Y182394D01*
X249509Y182481D01*
X249422Y182548D01*
X249321Y182589D01*
X249213Y182604D01*
D02*
G37*
G36*
X280315Y176284D02*
X280145Y176271D01*
X279979Y176231D01*
X279821Y176166D01*
X279676Y176077D01*
X279546Y175966D01*
X279435Y175836D01*
X279346Y175691D01*
X279281Y175533D01*
X279241Y175367D01*
X279227Y175197D01*
X279241Y175027D01*
X279281Y174861D01*
X279346Y174703D01*
X279435Y174558D01*
X279546Y174428D01*
X279676Y174317D01*
X279821Y174228D01*
X279979Y174162D01*
X280145Y174123D01*
X280315Y174109D01*
X280485Y174123D01*
X280651Y174162D01*
X280809Y174228D01*
X280954Y174317D01*
X281084Y174428D01*
X281195Y174558D01*
X281284Y174703D01*
X281349Y174861D01*
X281389Y175027D01*
X281403Y175197D01*
X281389Y175367D01*
X281349Y175533D01*
X281284Y175691D01*
X281195Y175836D01*
X281084Y175966D01*
X280954Y176077D01*
X280809Y176166D01*
X280651Y176231D01*
X280485Y176271D01*
X280315Y176284D01*
D02*
G37*
G36*
X249606D02*
X249436Y176271D01*
X24927Y176231D01*
X249113Y176166D01*
X248967Y176077D01*
X248837Y175966D01*
X248726Y175836D01*
X248637Y175691D01*
X248572Y175533D01*
X248532Y175367D01*
X248519Y175197D01*
X248532Y175027D01*
X248572Y174861D01*
X248637Y174703D01*
X248726Y174558D01*
X248837Y174428D01*
X248967Y174317D01*
X249113Y174228D01*
X24927Y174162D01*
X249436Y174123D01*
X249606Y174109D01*
X249776Y174123D01*
X249942Y174162D01*
X2501Y174228D01*
X250246Y174317D01*
X250375Y174428D01*
X250486Y174558D01*
X250575Y174703D01*
X250641Y174861D01*
X250681Y175027D01*
X250694Y175197D01*
X250681Y175367D01*
X250641Y175533D01*
X250575Y175691D01*
X250486Y175836D01*
X250375Y175966D01*
X250246Y176077D01*
X2501Y176166D01*
X249942Y176231D01*
X249776Y176271D01*
X249606Y176284D01*
D02*
G37*
%LPD*%
G36*
X258898Y175827D02*
Y175197D01*
X258819Y175118D01*
X258425D01*
X258307Y175236D01*
Y175866D01*
X258858D01*
X258898Y175827D01*
D02*
G37*
%LPC*%
G36*
X266142Y198215D02*
X266057Y198198D01*
X265984Y198149D01*
X265936Y198077D01*
X265919Y197992D01*
X265936Y197907D01*
X265984Y197835D01*
X266057Y197787D01*
X266142Y19777D01*
X266227Y197787D01*
X266299Y197835D01*
X266302Y197839D01*
X266472D01*
X266579Y197732D01*
Y197483D01*
X266575Y19748D01*
X266527Y197408D01*
X26651Y197323D01*
X266527Y197238D01*
X266575Y197166D01*
X266647Y197117D01*
X266732Y1971D01*
X266817Y197117D01*
X26689Y197166D01*
X266938Y197238D01*
X266955Y197323D01*
X266938Y197408D01*
X26689Y19748D01*
X266885Y197483D01*
Y197795D01*
X266874Y197854D01*
X26684Y197903D01*
X266644Y1981D01*
X266594Y198133D01*
X266535Y198145D01*
X266302D01*
X266299Y198149D01*
X266227Y198198D01*
X266142Y198215D01*
D02*
G37*
G36*
X282028Y196305D02*
X281888Y196287D01*
X281759Y196233D01*
X281647Y196148D01*
X281562Y196037D01*
X281508Y195907D01*
X28149Y195768D01*
X281508Y195629D01*
X281562Y195499D01*
X281647Y195388D01*
X281759Y195302D01*
X281888Y195248D01*
X282028Y19523D01*
X282167Y195248D01*
X282296Y195302D01*
X282408Y195388D01*
X282493Y195499D01*
X282547Y195629D01*
X282565Y195768D01*
X282547Y195907D01*
X282493Y196037D01*
X282408Y196148D01*
X282296Y196233D01*
X282167Y196287D01*
X282028Y196305D01*
D02*
G37*
G36*
X282687Y195321D02*
X282548Y195303D01*
X282418Y195249D01*
X282307Y195164D01*
X282221Y195052D01*
X282168Y194923D01*
X282149Y194783D01*
X282168Y194644D01*
X282221Y194515D01*
X282307Y194403D01*
X282418Y194318D01*
X282548Y194264D01*
X282687Y194246D01*
X282826Y194264D01*
X282956Y194318D01*
X283067Y194403D01*
X283153Y194515D01*
X283206Y194644D01*
X283225Y194783D01*
X283206Y194923D01*
X283153Y195052D01*
X283067Y195164D01*
X282956Y195249D01*
X282826Y195303D01*
X282687Y195321D01*
D02*
G37*
G36*
X283917Y192565D02*
X283778Y192547D01*
X283648Y192493D01*
X283537Y192408D01*
X283452Y192296D01*
X283398Y192167D01*
X28338Y192028D01*
X283398Y191888D01*
X283452Y191759D01*
X283537Y191647D01*
X283648Y191562D01*
X283778Y191508D01*
X283917Y19149D01*
X284056Y191508D01*
X284186Y191562D01*
X284298Y191647D01*
X284383Y191759D01*
X284437Y191888D01*
X284455Y192028D01*
X284437Y192167D01*
X284383Y192296D01*
X284298Y192408D01*
X284186Y192493D01*
X284056Y192547D01*
X283917Y192565D01*
D02*
G37*
G36*
X282028Y191384D02*
X281888Y191366D01*
X281759Y191312D01*
X281647Y191227D01*
X281562Y191115D01*
X281508Y190986D01*
X28149Y190846D01*
X281508Y190707D01*
X281562Y190578D01*
X281647Y190466D01*
X281759Y190381D01*
X281888Y190327D01*
X282028Y190309D01*
X282167Y190327D01*
X282296Y190381D01*
X282408Y190466D01*
X282493Y190578D01*
X282547Y190707D01*
X282565Y190846D01*
X282547Y190986D01*
X282493Y191115D01*
X282408Y191227D01*
X282296Y191312D01*
X282167Y191366D01*
X282028Y191384D01*
D02*
G37*
G36*
X282687Y1904D02*
X282548Y190382D01*
X282418Y190328D01*
X282307Y190242D01*
X282221Y190131D01*
X282168Y190001D01*
X282149Y189862D01*
X282168Y189723D01*
X282221Y189593D01*
X282307Y189482D01*
X282418Y189397D01*
X282548Y189343D01*
X282687Y189325D01*
X282826Y189343D01*
X282956Y189397D01*
X283067Y189482D01*
X283153Y189593D01*
X283206Y189723D01*
X283225Y189862D01*
X283206Y190001D01*
X283153Y190131D01*
X283067Y190242D01*
X282956Y190328D01*
X282826Y190382D01*
X282687Y1904D01*
D02*
G37*
G36*
X283917Y187644D02*
X283778Y187626D01*
X283648Y187572D01*
X283537Y187486D01*
X283452Y187375D01*
X283398Y187245D01*
X28338Y187106D01*
X283398Y186967D01*
X283452Y186837D01*
X283537Y186726D01*
X283648Y186641D01*
X283778Y186587D01*
X283917Y186569D01*
X284056Y186587D01*
X284186Y186641D01*
X284298Y186726D01*
X284383Y186837D01*
X284437Y186967D01*
X284455Y187106D01*
X284437Y187245D01*
X284383Y187375D01*
X284298Y187486D01*
X284186Y187572D01*
X284056Y187626D01*
X283917Y187644D01*
D02*
G37*
G36*
X283917Y182723D02*
X283778Y182704D01*
X283648Y182651D01*
X283537Y182565D01*
X283452Y182454D01*
X283398Y182324D01*
X28338Y182185D01*
X283398Y182046D01*
X283452Y181916D01*
X283537Y181805D01*
X283648Y181719D01*
X283778Y181666D01*
X283917Y181647D01*
X284056Y181666D01*
X284186Y181719D01*
X284298Y181805D01*
X284383Y181916D01*
X284437Y182046D01*
X284455Y182185D01*
X284437Y182324D01*
X284383Y182454D01*
X284298Y182565D01*
X284186Y182651D01*
X284056Y182704D01*
X283917Y182723D01*
D02*
G37*
G36*
X274134Y188844D02*
X274049Y188827D01*
X274046Y188826D01*
X273158D01*
X273156Y188827D01*
X273071Y188844D01*
X272986Y188827D01*
X272914Y188779D01*
X272865Y188707D01*
X272848Y188622D01*
X272865Y188537D01*
X272914Y188465D01*
X272986Y188417D01*
X273071Y1884D01*
X273156Y188417D01*
X273158Y188418D01*
X274046D01*
X274049Y188417D01*
X274134Y1884D01*
X274219Y188417D01*
X274291Y188465D01*
X274339Y188537D01*
X274356Y188622D01*
X274339Y188707D01*
X274291Y188779D01*
X274219Y188827D01*
X274134Y188844D01*
D02*
G37*
G36*
X278375Y185659D02*
X277535D01*
Y184819D01*
X278375D01*
Y185659D01*
D02*
G37*
G36*
X277471Y184572D02*
X277362Y184558D01*
X277261Y184516D01*
X277175Y18445D01*
X277108Y184363D01*
X277066Y184262D01*
X277052Y184154D01*
X277066Y184045D01*
X277108Y183944D01*
X277175Y183858D01*
X277261Y183791D01*
X277362Y183749D01*
X277471Y183735D01*
X277579Y183749D01*
X27768Y183791D01*
X277767Y183858D01*
X277833Y183944D01*
X277875Y184045D01*
X277889Y184154D01*
X277875Y184262D01*
X277833Y184363D01*
X277767Y18445D01*
X27768Y184516D01*
X277579Y184558D01*
X277471Y184572D01*
D02*
G37*
%LPD*%
D10*
X258268Y20248D02*
D03*
X258268Y20185D02*
D03*
X260433Y20248D02*
D03*
X260433Y20185D02*
D03*
X25935Y20248D02*
D03*
X25935Y20185D02*
D03*
D12*
X255827Y175984D02*
D03*
X255197Y175984D02*
D03*
D19*
X277953Y196079D02*
D03*
Y197079D02*
D03*
Y198079D02*
D03*
Y199079D02*
D03*
Y200079D02*
D03*
D46*
X279291Y181496D02*
X279567D01*
X279764Y181693D01*
Y183425D01*
X280512Y187953D02*
X280984Y188425D01*
Y189488D01*
X280079Y190984D02*
X280197Y190866D01*
X280079Y190984D02*
Y192657D01*
X280472Y193051D01*
X280157Y187598D02*
X280512Y187953D01*
X280157Y186772D02*
Y187598D01*
Y186772D02*
X281929Y185D01*
Y184331D02*
Y185D01*
X281378Y18378D02*
X281929Y184331D01*
X280118Y18378D02*
X281378D01*
X279764Y183425D02*
X280118Y18378D01*
X25626Y175984D02*
X25626Y175984D01*
X255827Y175984D02*
X25626D01*
D47*
X266378Y17689D02*
X26685Y176417D01*
X265728Y17689D02*
X266378D01*
X26565Y176968D02*
X265728Y17689D01*
X254921Y177909D02*
X255123Y17811D01*
X257992D01*
X258465Y175315D02*
Y177638D01*
X257992Y17811D02*
X258465Y177638D01*
X249213Y178543D02*
Y181594D01*
X275489Y179072D02*
X277129D01*
X275098Y178681D02*
X275489Y179072D01*
X275098Y177559D02*
Y178681D01*
X273425Y175197D02*
X275098D01*
X27313Y175492D02*
X273425Y175197D01*
X27313Y175492D02*
Y176378D01*
X279958Y177202D02*
Y179072D01*
X277953Y175197D02*
X279958Y177202D01*
X275098Y175197D02*
X277953D01*
X278481Y182063D02*
Y183144D01*
X277402Y180984D02*
X278481Y182063D01*
X277402Y180197D02*
Y180984D01*
Y180197D02*
X278543Y179055D01*
Y177657D02*
Y179055D01*
X249213Y178543D02*
X250591Y177165D01*
X254917D01*
Y177909D01*
D48*
X250276Y186102D02*
X252137Y187963D01*
X248613Y186102D02*
X250276D01*
X248425Y185915D02*
X248613Y186102D01*
X248425Y185551D02*
Y185915D01*
X248169Y185295D02*
X248425Y185551D01*
X2475Y185295D02*
X248169D01*
X247028Y184823D02*
X2475Y185295D01*
X247028Y183957D02*
Y184823D01*
X252756Y198307D02*
X258898D01*
X252137Y197688D02*
X252756Y198307D01*
X252137Y187963D02*
Y197688D01*
X26626Y19689D02*
X267598D01*
X269921Y194921D02*
X272244Y197244D01*
X276378Y192244D02*
Y201165D01*
X276024Y19189D02*
X276378Y192244D01*
X270984Y19189D02*
X276024D01*
X275984Y201559D02*
X276378Y201165D01*
X271496Y186378D02*
Y186575D01*
Y186378D02*
X272635Y185239D01*
X276955D01*
X261614Y189606D02*
X262244D01*
X255197Y175197D02*
Y175984D01*
Y175197D02*
X255374Y17502D01*
X266142Y197992D02*
X266535D01*
X266732Y197795D01*
Y197323D02*
Y197795D01*
X261575Y199724D02*
X268504D01*
X268583Y195512D02*
Y19874D01*
X264468Y200571D02*
X265059D01*
X265591Y200039D01*
X269055D01*
X269173Y199921D01*
Y199331D02*
Y199921D01*
X268583Y19874D02*
X269173Y199331D01*
X269488Y198898D02*
Y199961D01*
X269055Y200394D02*
X269488Y199961D01*
X266378Y200394D02*
X269055D01*
X268858Y198268D02*
X269488Y198898D01*
X268858Y195433D02*
Y198268D01*
X26815Y19563D02*
Y198937D01*
X262913Y191654D02*
X263622Y192362D01*
X262913Y189449D02*
Y191654D01*
X262638Y189173D02*
X262913Y189449D01*
X261614Y189173D02*
X262638D01*
X26311Y18874D02*
Y189685D01*
X262126Y187756D02*
X26311Y18874D01*
X262126Y187559D02*
Y187756D01*
X26311Y189685D02*
X266457Y193031D01*
X263622Y192362D02*
X264528D01*
X265591Y193425D01*
X266142D01*
X267992Y192441D02*
X268032D01*
X267205Y191654D02*
X267992Y192441D01*
X268976Y192205D02*
X269094Y192323D01*
X268976Y191417D02*
Y192205D01*
Y191417D02*
X269252Y191142D01*
X276024D01*
X277126Y192244D01*
Y201102D01*
X277583Y201559D01*
X277953D01*
X269331Y191614D02*
X276142D01*
X276732Y192205D01*
Y202008D01*
X277283Y202559D01*
X277953D01*
X268819Y194921D02*
X269921D01*
X266968D02*
X26752D01*
X266575Y194528D02*
X266968Y194921D01*
X266575Y194134D02*
Y194528D01*
Y194134D02*
X266693Y194016D01*
Y192402D02*
Y194016D01*
X266457Y193031D02*
Y19311D01*
X266929Y194449D02*
X267008Y19437D01*
Y190709D02*
Y19437D01*
X265591Y189291D02*
X267008Y190709D01*
X267244Y194173D02*
X268583Y195512D01*
X267244Y192362D02*
Y194173D01*
Y192362D02*
X267323Y192283D01*
X270197Y192677D02*
X270984Y19189D01*
X268976Y192677D02*
X270197D01*
X262835Y192874D02*
X263898D01*
X262795Y192913D02*
X262835Y192874D01*
X262756Y193386D02*
X263898D01*
X265039Y201732D02*
X266378Y200394D01*
X264134Y201732D02*
X265039D01*
X263425Y200394D02*
Y201024D01*
X264134Y201732D01*
X26748Y194055D02*
X268858Y195433D01*
X26748Y19315D02*
Y194055D01*
Y19315D02*
X267913Y192717D01*
X268386D01*
X268701Y192402D01*
X259724Y198307D02*
Y199882D01*
Y198307D02*
X261535Y196496D01*
X265079D01*
X262756Y192874D02*
X262795Y192913D01*
X27126Y192283D02*
Y192323D01*
X270669Y192913D02*
X27126Y192323D01*
X268071Y192913D02*
X270669D01*
X267913Y193071D02*
X268071Y192913D01*
X267913Y193071D02*
Y193543D01*
X267756Y193898D02*
X26937D01*
X271968Y196496D01*
X25935Y20248D02*
X259842D01*
X262165Y198268D02*
X262835D01*
X260984Y199449D02*
X262165Y198268D01*
X260984Y199449D02*
Y200551D01*
X262835Y196811D02*
Y198268D01*
X263228Y196811D02*
Y198268D01*
X269213Y189764D02*
X281496D01*
X268425Y190551D02*
X269213Y189764D01*
X267677Y190551D02*
X268425D01*
X26937Y190039D02*
X279921D01*
X268504Y190906D02*
X26937Y190039D01*
X267441Y190906D02*
X268504D01*
X262756Y192874D02*
X262756Y192874D01*
X261968Y196772D02*
Y197677D01*
X260827Y198819D02*
X261968Y197677D01*
X260039Y198819D02*
X260827D01*
X258268Y199449D02*
X258898Y198819D01*
X258268Y199449D02*
Y20185D01*
X262441Y196772D02*
Y197598D01*
X260433Y199606D02*
X262441Y197598D01*
X260433Y199606D02*
Y20185D01*
X267205Y190591D02*
Y191654D01*
X265591Y188976D02*
X267205Y190591D01*
X263583Y188976D02*
X265591D01*
X261614Y188307D02*
X262087D01*
X262638Y188858D01*
X261614Y187441D02*
X262008D01*
X262126Y187559D01*
X257965Y195996D02*
X257992Y196024D01*
X255059Y195996D02*
X257965D01*
X260433Y20248D02*
Y202992D01*
X258268Y20248D02*
Y202992D01*
X279921Y190039D02*
X28185Y191968D01*
Y192598D01*
X281496Y192953D02*
X28185Y192598D01*
X281496Y192953D02*
Y194803D01*
X267677Y190551D02*
X267677Y190551D01*
X268307Y190236D02*
X272205Y186339D01*
X267913Y190236D02*
X268307D01*
X267913D02*
X267913Y190236D01*
X259803Y190591D02*
X260354D01*
X259331Y191063D02*
X259803Y190591D01*
X262323Y187402D02*
X262343Y187421D01*
X253841Y193561D02*
X258797D01*
X26128Y193996D02*
X264272D01*
X264094Y189291D02*
X265591D01*
X262205Y200571D02*
Y201299D01*
X264468Y200571D02*
Y20128D01*
X256811Y197244D02*
X258346D01*
X262059Y195996D02*
X264272D01*
X261575Y195512D02*
X262059Y195996D01*
X25876Y195492D02*
X260531D01*
X25935Y198228D02*
Y20185D01*
Y198228D02*
X260984Y196595D01*
X254213Y184094D02*
Y187677D01*
X260984Y194449D01*
Y196595D01*
X261846Y194996D02*
X264272D01*
X259331Y19248D02*
X261846Y194996D01*
X259331Y191811D02*
Y19248D01*
X264803Y193071D02*
X265775Y194042D01*
Y1958D01*
X265079Y196496D02*
X265775Y1958D01*
X266024Y195118D02*
X266034Y195129D01*
X267323Y195315D02*
X267835D01*
X267137Y195129D02*
X267323Y195315D01*
X266034Y195129D02*
X267137D01*
X267835Y195315D02*
X26815Y19563D01*
X272205Y186339D02*
X278032D01*
X279488Y184882D01*
X281496D01*
D49*
X273071Y188622D02*
X274134D01*
X273976Y197717D02*
X275866Y195827D01*
Y192559D02*
Y195827D01*
X262087Y18874D02*
X262283Y188937D01*
X257854Y203563D02*
X262205D01*
X257047Y202756D02*
X257854Y203563D01*
X254331Y202756D02*
X257047D01*
X253346Y201772D02*
X254331Y202756D01*
X253346Y200689D02*
Y201772D01*
X26563Y198701D02*
X26626Y199331D01*
X26563Y196929D02*
Y198701D01*
X274016Y201559D02*
X274472D01*
X274843Y201929D01*
Y203819D01*
X274409Y204252D02*
X274843Y203819D01*
X262402Y204252D02*
X274409D01*
X262205Y204055D02*
X262402Y204252D01*
X262205Y203563D02*
Y204055D01*
X262854Y203563D02*
X262874Y203583D01*
X262205Y203563D02*
X262854D01*
X274016Y197756D02*
Y201559D01*
X270433Y197717D02*
X273976D01*
X261614Y18874D02*
X261614Y18874D01*
X262087D01*
X260315Y18874D02*
X261614D01*
X259409Y187835D02*
X260315Y18874D01*
X259409Y185315D02*
Y187835D01*
Y185315D02*
X260827Y183898D01*
Y183543D02*
Y183898D01*
X249646Y18563D02*
X250354D01*
X25189Y187165D01*
D51*
X277955Y185239D02*
D03*
X254917Y177163D02*
D03*
D52*
X276955Y185239D02*
D03*
X255917Y177163D02*
D03*
D53*
X248327Y188976D02*
D03*
D54*
X249327Y187976D02*
D03*
X247327Y189976D02*
D03*
D55*
X249327D02*
D03*
X247327Y187976D02*
D03*
D56*
X268209Y203165D02*
D03*
Y201165D02*
D03*
Y202165D02*
D03*
X270079Y203165D02*
D03*
Y201165D02*
D03*
Y202165D02*
D03*
X274016Y201559D02*
D03*
Y203559D02*
D03*
Y202559D02*
D03*
X277953Y203559D02*
D03*
Y201559D02*
D03*
Y202559D02*
D03*
X275984Y203559D02*
D03*
X275984Y201559D02*
D03*
Y202559D02*
D03*
D57*
X280315Y202756D02*
D03*
Y175197D02*
D03*
X249606D02*
D03*
Y202756D02*
D03*
D58*
X27313Y176378D02*
D03*
D59*
X275098Y175197D02*
D03*
Y177559D02*
D03*
D60*
X278543Y177657D02*
D03*
D61*
X279958Y179072D02*
D03*
X278543Y180486D02*
D03*
X277129Y179072D02*
D03*
D62*
X285295Y183957D02*
D03*
X283917Y182185D02*
D03*
X280935Y182303D02*
D03*
X282028Y185925D02*
D03*
X282687Y184941D02*
D03*
X285295Y193799D02*
D03*
X283917Y192028D02*
D03*
X280935Y192146D02*
D03*
X282028Y195768D02*
D03*
X282687Y194783D02*
D03*
X285295Y188878D02*
D03*
X283917Y187106D02*
D03*
X280935Y187224D02*
D03*
X282028Y190846D02*
D03*
X282687Y189862D02*
D03*
D63*
X268012Y186516D02*
D03*
X269932D02*
D03*
D64*
X277953Y195079D02*
D03*
D65*
X253346Y200689D02*
D03*
X254346D02*
D03*
X255346D02*
D03*
X256346D02*
D03*
X254346Y203689D02*
D03*
X255346D02*
D03*
X256346D02*
D03*
D66*
X253346D02*
D03*
D67*
X276451Y183134D02*
D03*
X277471Y184154D02*
D03*
X278481Y183144D02*
D03*
D68*
X249213Y181594D02*
D03*
X274764Y181594D02*
D03*
D69*
X247047Y181535D02*
D03*
X247126Y18563D02*
D03*
Y186024D02*
D03*
X247874Y18563D02*
D03*
Y186024D02*
D03*
X266181Y196575D02*
D03*
X26685Y176417D02*
D03*
X258071Y175276D02*
D03*
X274134Y188622D02*
D03*
X273071D02*
D03*
X279291Y181496D02*
D03*
X280984Y189488D02*
D03*
X280197Y190866D02*
D03*
X280472Y193051D02*
D03*
X280512Y187953D02*
D03*
X279764Y183425D02*
D03*
X252165Y176772D02*
D03*
X262874Y203583D02*
D03*
X263032Y203386D02*
D03*
Y20378D02*
D03*
X26626Y19689D02*
D03*
X26563Y196929D02*
D03*
X265433Y196772D02*
D03*
X265827D02*
D03*
X26626Y199331D02*
D03*
X266063Y199173D02*
D03*
X266457D02*
D03*
X270433Y197717D02*
D03*
X270236Y197559D02*
D03*
X27063D02*
D03*
X275669Y192717D02*
D03*
X276063D02*
D03*
X275866Y192559D02*
D03*
X262283Y188937D02*
D03*
X261142Y18315D02*
D03*
X260827D02*
D03*
X260512D02*
D03*
X261142Y183543D02*
D03*
X260512D02*
D03*
X26626Y199331D02*
D03*
X26563Y196929D02*
D03*
X262874Y203583D02*
D03*
X270433Y197717D02*
D03*
X272244Y197244D02*
D03*
X271496Y186575D02*
D03*
X262244Y189606D02*
D03*
X262087Y18874D02*
D03*
X260827Y183543D02*
D03*
X25189Y187165D02*
D03*
X249646Y18563D02*
D03*
X25626Y175984D02*
D03*
X255374Y17502D02*
D03*
X258465Y175315D02*
D03*
X26874Y175669D02*
D03*
X267598Y19689D02*
D03*
X266142Y197992D02*
D03*
X266732Y197323D02*
D03*
X268504Y199724D02*
D03*
X26815Y198937D02*
D03*
X268032Y192441D02*
D03*
X269094Y192323D02*
D03*
X269331Y191614D02*
D03*
X268819Y194921D02*
D03*
X26752D02*
D03*
X266457Y19311D02*
D03*
X266142Y193425D02*
D03*
X266693Y192402D02*
D03*
X268976Y192677D02*
D03*
X263898Y192874D02*
D03*
Y193386D02*
D03*
X262756D02*
D03*
X263425Y200394D02*
D03*
X268701Y192402D02*
D03*
X266929Y194449D02*
D03*
X259724Y199882D02*
D03*
X264803Y193071D02*
D03*
X27126Y192283D02*
D03*
X267913Y193543D02*
D03*
X267756Y193898D02*
D03*
X271968Y196496D02*
D03*
X259842Y20248D02*
D03*
X260984Y200551D02*
D03*
X262835Y198268D02*
D03*
Y196811D02*
D03*
X263228Y198268D02*
D03*
Y196811D02*
D03*
X262756Y192874D02*
D03*
X261968Y196772D02*
D03*
X260039Y198819D02*
D03*
X258898D02*
D03*
X262441Y196772D02*
D03*
X262638Y188858D02*
D03*
X263583Y188976D02*
D03*
X261575Y199724D02*
D03*
X258898Y198307D02*
D03*
X247028Y183957D02*
D03*
X257992Y196024D02*
D03*
X254213Y184094D02*
D03*
X260433Y202992D02*
D03*
X258268Y202992D02*
D03*
X267441Y190906D02*
D03*
X281496Y194803D02*
D03*
X267677Y190551D02*
D03*
X281496Y189764D02*
D03*
X267913Y190236D02*
D03*
X281496Y184882D02*
D03*
X260354Y190591D02*
D03*
X259331Y191063D02*
D03*
X262343Y187421D02*
D03*
X258797Y193561D02*
D03*
X253841D02*
D03*
X26128Y193996D02*
D03*
X264094Y189291D02*
D03*
X262205Y201299D02*
D03*
X267323Y192283D02*
D03*
X264468Y20128D02*
D03*
X258346Y197244D02*
D03*
X256811D02*
D03*
X261575Y195512D02*
D03*
X25876Y195492D02*
D03*
X260531D02*
D03*
X259331Y191811D02*
D03*
X281102Y180079D02*
D03*
Y180472D02*
D03*
Y179685D02*
D03*
Y178386D02*
D03*
Y179173D02*
D03*
Y17878D02*
D03*
Y177087D02*
D03*
Y177874D02*
D03*
Y17748D02*
D03*
X268819Y180512D02*
D03*
X268425D02*
D03*
X269213D02*
D03*
X26752D02*
D03*
X267126D02*
D03*
X267913D02*
D03*
X266614D02*
D03*
X265827D02*
D03*
X26622D02*
D03*
X272913D02*
D03*
X27252D02*
D03*
X273307D02*
D03*
X271614D02*
D03*
X27122D02*
D03*
X272008D02*
D03*
X270709D02*
D03*
X269921D02*
D03*
X270315D02*
D03*
X270866Y179331D02*
D03*
X270472D02*
D03*
X27126D02*
D03*
X269567D02*
D03*
X269173D02*
D03*
X269961D02*
D03*
X268661D02*
D03*
X267874D02*
D03*
X268268D02*
D03*
X275118D02*
D03*
X274724D02*
D03*
X273819D02*
D03*
X273425D02*
D03*
X274213D02*
D03*
X272913D02*
D03*
X272126D02*
D03*
X27252D02*
D03*
X266496D02*
D03*
X266102D02*
D03*
X26689D02*
D03*
X265197D02*
D03*
X264803D02*
D03*
X265591D02*
D03*
X264291D02*
D03*
X263504D02*
D03*
X263898D02*
D03*
X261811Y173858D02*
D03*
X261417D02*
D03*
X262205D02*
D03*
X260512D02*
D03*
X260118D02*
D03*
X260906D02*
D03*
X259606D02*
D03*
X258819D02*
D03*
X259213D02*
D03*
X267244Y17378D02*
D03*
X26685D02*
D03*
X267638D02*
D03*
X265945D02*
D03*
X265551D02*
D03*
X266339D02*
D03*
X265039D02*
D03*
X264252D02*
D03*
X264646D02*
D03*
X248583Y179646D02*
D03*
Y179252D02*
D03*
Y180039D02*
D03*
Y178346D02*
D03*
Y177953D02*
D03*
Y17874D02*
D03*
Y177441D02*
D03*
Y176654D02*
D03*
Y177047D02*
D03*
X248465Y186811D02*
D03*
Y186417D02*
D03*
X249094Y187165D02*
D03*
X247559Y184449D02*
D03*
Y184055D02*
D03*
Y184843D02*
D03*
X249803Y19189D02*
D03*
Y192677D02*
D03*
Y192283D02*
D03*
Y190591D02*
D03*
Y191378D02*
D03*
Y190984D02*
D03*
Y187008D02*
D03*
Y186614D02*
D03*
Y187402D02*
D03*
X247717Y186811D02*
D03*
Y186417D02*
D03*
X248346Y187165D02*
D03*
Y192717D02*
D03*
X247953D02*
D03*
X24874D02*
D03*
X247126Y191457D02*
D03*
Y191063D02*
D03*
Y19185D02*
D03*
X252559Y174331D02*
D03*
X253346D02*
D03*
X252953D02*
D03*
X25811Y180197D02*
D03*
X257717D02*
D03*
X258504D02*
D03*
X259803D02*
D03*
X259016D02*
D03*
X259409D02*
D03*
X261102D02*
D03*
X260315D02*
D03*
X260709D02*
D03*
X25811Y17937D02*
D03*
X257717D02*
D03*
X258504D02*
D03*
X259803D02*
D03*
X259016D02*
D03*
X259409D02*
D03*
X261102D02*
D03*
X260315D02*
D03*
X260709D02*
D03*
X256693Y182441D02*
D03*
X256299D02*
D03*
X257087D02*
D03*
X258386D02*
D03*
X257598D02*
D03*
X257992D02*
D03*
X259685D02*
D03*
X258898D02*
D03*
X259291D02*
D03*
Y183071D02*
D03*
X258898D02*
D03*
X259685D02*
D03*
X260315Y187323D02*
D03*
Y186929D02*
D03*
Y187717D02*
D03*
X247598Y187165D02*
D03*
X246968Y186417D02*
D03*
Y186811D02*
D03*
X25189Y188583D02*
D03*
Y188189D02*
D03*
Y188976D02*
D03*
Y190276D02*
D03*
Y189488D02*
D03*
Y189882D02*
D03*
Y191575D02*
D03*
Y190787D02*
D03*
Y191181D02*
D03*
X252598D02*
D03*
Y191575D02*
D03*
Y190787D02*
D03*
X249134Y200827D02*
D03*
X24874Y200827D02*
D03*
X249528D02*
D03*
Y200079D02*
D03*
X24874D02*
D03*
X249134D02*
D03*
X249528Y199331D02*
D03*
X24874D02*
D03*
X249134Y199331D02*
D03*
X251535Y197638D02*
D03*
X251142D02*
D03*
X251929D02*
D03*
X250236D02*
D03*
X249843D02*
D03*
X25063D02*
D03*
X250236Y196457D02*
D03*
X249843D02*
D03*
X25063D02*
D03*
X248937D02*
D03*
X248543D02*
D03*
X249331D02*
D03*
X24937Y195157D02*
D03*
Y195551D02*
D03*
Y194764D02*
D03*
X250118Y195157D02*
D03*
Y195551D02*
D03*
Y194764D02*
D03*
X250866D02*
D03*
Y195551D02*
D03*
X250866Y195157D02*
D03*
X272165Y182835D02*
D03*
X271772D02*
D03*
X272559D02*
D03*
X272165Y183583D02*
D03*
X271772D02*
D03*
X272559D02*
D03*
Y184331D02*
D03*
X271772D02*
D03*
X272165Y184331D02*
D03*
X26563Y182205D02*
D03*
X265236D02*
D03*
X266024D02*
D03*
X26563Y182953D02*
D03*
X265236D02*
D03*
X266024D02*
D03*
Y183701D02*
D03*
X265236D02*
D03*
X26563Y183701D02*
D03*
X280669Y198543D02*
D03*
X280276D02*
D03*
X281063D02*
D03*
X280669Y199291D02*
D03*
X280276D02*
D03*
X281063D02*
D03*
Y200039D02*
D03*
X280276D02*
D03*
X280669Y200039D02*
D03*
X272953Y199252D02*
D03*
X272559D02*
D03*
X273346D02*
D03*
X272953Y2D02*
D03*
X272559D02*
D03*
X273346D02*
D03*
Y200748D02*
D03*
X272559D02*
D03*
X272953Y200748D02*
D03*
X253346Y187795D02*
D03*
Y188189D02*
D03*
Y187402D02*
D03*
Y189094D02*
D03*
Y189488D02*
D03*
Y188701D02*
D03*
X254252Y189094D02*
D03*
Y189488D02*
D03*
Y188701D02*
D03*
Y190394D02*
D03*
Y190787D02*
D03*
Y19D02*
D03*
X255197Y19D02*
D03*
Y190394D02*
D03*
Y189606D02*
D03*
Y191299D02*
D03*
Y191693D02*
D03*
Y190906D02*
D03*
X258937Y189764D02*
D03*
X258543D02*
D03*
X259331D02*
D03*
X257638D02*
D03*
X257244D02*
D03*
X258032D02*
D03*
X258425Y189016D02*
D03*
X258032D02*
D03*
X258819D02*
D03*
X257126D02*
D03*
X256732D02*
D03*
X25752D02*
D03*
X257913Y188228D02*
D03*
X25752D02*
D03*
X258307D02*
D03*
X256614D02*
D03*
X25622D02*
D03*
X257008D02*
D03*
X257402Y187441D02*
D03*
X257008D02*
D03*
X257795D02*
D03*
X256102D02*
D03*
X255709D02*
D03*
X256496D02*
D03*
X279173Y173701D02*
D03*
X27878D02*
D03*
X279567D02*
D03*
X277874D02*
D03*
X27748D02*
D03*
X278268D02*
D03*
X275906Y176378D02*
D03*
X275512D02*
D03*
X276299D02*
D03*
X274606D02*
D03*
X274213D02*
D03*
X275D02*
D03*
X272047Y188032D02*
D03*
X272835D02*
D03*
X272441D02*
D03*
X272047Y187283D02*
D03*
X272835D02*
D03*
X272441D02*
D03*
X268465Y187795D02*
D03*
X269252D02*
D03*
X268858D02*
D03*
Y188189D02*
D03*
X268465D02*
D03*
Y188543D02*
D03*
X264606Y190709D02*
D03*
X264646Y190315D02*
D03*
X265Y190512D02*
D03*
X269567Y190669D02*
D03*
X269817Y190419D02*
D03*
X273386Y193819D02*
D03*
X27378D02*
D03*
X272992D02*
D03*
X273543Y194488D02*
D03*
X273937D02*
D03*
X27315D02*
D03*
X274803D02*
D03*
X275197D02*
D03*
X274409D02*
D03*
X274646Y193819D02*
D03*
X275039D02*
D03*
X274252D02*
D03*
X274331Y195512D02*
D03*
X274724D02*
D03*
X273937D02*
D03*
X274646Y196024D02*
D03*
X275039D02*
D03*
X274252D02*
D03*
X274803Y198898D02*
D03*
X275082Y199176D02*
D03*
X274525Y198619D02*
D03*
X275669Y200197D02*
D03*
Y199803D02*
D03*
Y200591D02*
D03*
X272835Y19689D02*
D03*
X273113Y197168D02*
D03*
X272556Y196611D02*
D03*
X276968Y203543D02*
D03*
Y203937D02*
D03*
Y20315D02*
D03*
X252717Y184409D02*
D03*
X252323D02*
D03*
X25311D02*
D03*
X252717Y183661D02*
D03*
X252323Y183661D02*
D03*
X25311D02*
D03*
X254016Y181929D02*
D03*
X253228Y181929D02*
D03*
X253622Y181929D02*
D03*
X254016Y182677D02*
D03*
X253228D02*
D03*
X253622D02*
D03*
X252244Y181929D02*
D03*
X251457Y181929D02*
D03*
X25185Y181929D02*
D03*
X252244Y182677D02*
D03*
X251457D02*
D03*
X25185D02*
D03*
X255157Y197795D02*
D03*
X25437D02*
D03*
X254764D02*
D03*
X256457D02*
D03*
X255669D02*
D03*
X256063D02*
D03*
X267008Y201968D02*
D03*
Y201181D02*
D03*
Y201575D02*
D03*
Y203268D02*
D03*
Y20248D02*
D03*
Y202874D02*
D03*
X270197Y199055D02*
D03*
Y198268D02*
D03*
Y198661D02*
D03*
Y200354D02*
D03*
Y199567D02*
D03*
Y199961D02*
D03*
X275827Y189252D02*
D03*
X276614D02*
D03*
X27622D02*
D03*
X274528D02*
D03*
X275315D02*
D03*
X274921D02*
D03*
X272402Y190669D02*
D03*
X272795D02*
D03*
X272008D02*
D03*
X275669Y187283D02*
D03*
X276063D02*
D03*
X275276D02*
D03*
X275669Y188032D02*
D03*
X276063D02*
D03*
X275276D02*
D03*
X275551Y19063D02*
D03*
X276339D02*
D03*
X275945D02*
D03*
X259134Y204134D02*
D03*
X259528D02*
D03*
X25874D02*
D03*
X260433D02*
D03*
X260827D02*
D03*
X260039D02*
D03*
X266181Y194764D02*
D03*
Y194409D02*
D03*
X265315Y195709D02*
D03*
X266024Y195118D02*
D03*
X255591Y199803D02*
D03*
X254803D02*
D03*
X255197D02*
D03*
X25689D02*
D03*
X256102D02*
D03*
X256496D02*
D03*
X269882Y176929D02*
D03*
Y176142D02*
D03*
Y176535D02*
D03*
Y178228D02*
D03*
Y177441D02*
D03*
Y177835D02*
D03*
X284646Y185748D02*
D03*
X285433D02*
D03*
X285039D02*
D03*
X283346D02*
D03*
X284134D02*
D03*
X28374D02*
D03*
X284646Y190709D02*
D03*
X285433D02*
D03*
X285039D02*
D03*
X283346D02*
D03*
X284134D02*
D03*
X28374D02*
D03*
X284646Y195591D02*
D03*
X285433D02*
D03*
X285039D02*
D03*
X283346D02*
D03*
X284134D02*
D03*
X28374D02*
D03*
X285315Y182598D02*
D03*
Y182992D02*
D03*
Y182205D02*
D03*
Y187559D02*
D03*
Y187953D02*
D03*
Y187165D02*
D03*
X285276Y19248D02*
D03*
Y192874D02*
D03*
Y192087D02*
D03*
X280315Y195669D02*
D03*
X279921D02*
D03*
X280709D02*
D03*
X279291Y191299D02*
D03*
Y190906D02*
D03*
Y191693D02*
D03*
X277717Y187008D02*
D03*
X27811D02*
D03*
X277323D02*
D03*
X271339Y20378D02*
D03*
X271732D02*
D03*
X270945D02*
D03*
X272638D02*
D03*
X273032D02*
D03*
X272244D02*
D03*
X263307Y184252D02*
D03*
X262913D02*
D03*
X263701D02*
D03*
X262008D02*
D03*
X261614D02*
D03*
X262402D02*
D03*
X27815Y192441D02*
D03*
Y191654D02*
D03*
Y192047D02*
D03*
D70*
X26565Y176968D02*
D03*
Y174213D02*
D03*
D71*
X271535Y175689D02*
D03*
X268031D02*
D03*
D72*
X264468Y203563D02*
D03*
Y200571D02*
D03*
X262205Y203563D02*
D03*
Y200571D02*
D03*
D73*
X255059Y198878D02*
D03*
X255059Y195996D02*
D03*
Y194996D02*
D03*
X255059Y193996D02*
D03*
X264272D02*
D03*
Y198878D02*
D03*
Y195996D02*
D03*
Y194996D02*
D03*
D74*
X263858Y18611D02*
D03*
Y191449D02*
D03*
X260591D02*
D03*
Y18611D02*
D03*
D75*
X261614Y190039D02*
D03*
Y189606D02*
D03*
Y189173D02*
D03*
Y18874D02*
D03*
Y188307D02*
D03*
Y187874D02*
D03*
Y187441D02*
D03*
Y187008D02*
D03*
D76*
X248327Y192234D02*
D03*
Y191033D02*
D03*
D77*
X248868Y191634D02*
D03*
X247785D02*
D03*
D78*
X248327Y188976D02*
Y191033D01*
D79*
X254917Y177909D02*
X254921D01*
D80*
X257173Y193995D02*
D03*
X25713Y194985D02*
D03*
D81*
X257146Y195985D02*
D03*
M02*
