M48
;Layer_Color=9474304
;FILE_FORMAT=2:4
INCH,LZ
;TYPE=PLATED
T1F00S00C0.0118
T3F00S00C0.0310
T4F00S00C0.0315
T6F00S00C0.0354
T7F00S00C0.0394
T8F00S00C0.0591
T9F00S00C0.0787
T10F00S00C0.1181
;TYPE=NON_PLATED
T11F00S00C0.0394
%
T01
X285315Y187165
X285433Y185748
X285039
X284646
X284134
X28374
X283346
X281496Y184882
X285315Y182992
Y182598
Y182205
X281102Y180472
Y180079
Y179685
Y179173
Y17878
Y178386
Y177874
Y17748
Y177087
X279567Y173701
X279173
X27878
X278268
X277874
X27748
X276299Y176378
X275906
X275512
X275
X274606
X274213
X274213Y179331
X273819
X273425
X272913
X27252
X272126
X27126
X270866
X270472
X269961
X269567
X269173
X268661
X268268
X267874
X26689
X266496
X266102
X26622Y180512
X265827
X266614
X267126
X26752
X267913
X268425
X268819
X269213
X269921
X270315
X270709
X27122
X271614
X272008
X27252
X272913
X273307
X274724Y179331
X275118
X272559Y182835
X272165
X271772
Y183583
X272165
X272559
Y184331
X272165Y184331
X271772Y184331
X271496Y186575
X272047Y187283
X272441
X272835
X275276
X275669
X276063
X277323Y187008
X277717
X27811
X279764Y183425
X279291Y181496
X269882Y178228
Y177835
Y177441
Y176929
Y176535
Y176142
X26874Y175669
X26685Y176417
Y17378
X267244
X267638
X266339
X265945
X266024Y182205
X26563
Y182953
X266024
Y183701
X26563Y183701
X265236Y183701
Y182953
Y182205
X265197Y179331
X264803
X264291
X263898
X263504
X265591
X261102Y17937
X260709
X260315
X259803
X259409
X259016
X258504
X25811
X257717
Y180197
X25811
X258504
X259016
X259409
X259803
X260315
X260709
X261102
X261142Y18315
X260827
X260512
Y183543
X260827
X261142
X261614Y184252
X262008
X262402
X262913
X263307
X263701
X262343Y187421
X260315Y187323
Y186929
X257795Y187441
X257402
X257008
X256496
X256102
X255709
X253346Y187402
X25189Y187165
X252323Y184409
X252717
X25311
Y183661
X252717Y183661
X252323Y183661
X252244Y182677
X25185
X251457
Y181929
X25185Y181929
X252244
X253228Y181929
X253622Y181929
X254016
Y182677
X253622
X253228
X254213Y184094
X256299Y182441
X256693
X257087
X257598
X257992
X258386
X258898
X259291
X259685
Y183071
X259291
X258898
X258465Y175315
X258071Y175276
X258819Y173858
X259213
X259606
X260118
X260512
X260906
X261417
X261811
X262205
X264252Y17378
X264646
X265039
X265551
X255374Y17502
X25626Y175984
X253346Y174331
X252953
X252559
X252165Y176772
X248583Y176654
Y177047
Y177441
Y177953
Y178346
Y17874
Y179252
Y179646
Y180039
X247047Y181535
X247028Y183957
X247559Y184055
Y184449
Y184843
X247874Y18563
Y186024
X247717Y186417
Y186811
X247598Y187165
X248346
X248465Y186811
Y186417
X249094Y187165
X249803Y187008
Y186614
Y187402
X249646Y18563
X247126
Y186024
X246968Y186417
Y186811
X247126Y191063
Y191457
Y19185
X247953Y192717
X248346
X24874
X249803Y192677
Y192283
Y19189
Y191378
Y190984
Y190591
X24937Y194764
Y195157
Y195551
X249331Y196457
X248937
X248543
X249843
X249843Y197638
X249528Y199331
X249134Y199331
X24874Y199331
Y200079
X249134
X249528
Y200827
X249134Y200827
X24874Y200827
X250236Y197638
X25063
X251142
X251535
X251929
X25063Y196457
X250236
X250118Y195551
Y195157
Y194764
X250866
X250866Y195157
X250866Y195551
X253841Y193561
X254252Y190787
Y190394
Y19
Y189488
Y189094
Y188701
X253346
Y189094
Y189488
Y188189
Y187795
X25189Y188189
Y188583
Y188976
Y189488
Y189882
Y190276
Y190787
Y191181
Y191575
X252598
Y191181
Y190787
X255197Y190906
Y191299
Y191693
Y190394
Y19
Y189606
X256732Y189016
X257126
X25752
X258032
X258425
X258819
X258937Y189764
X258543
X258032
X257638
X257244
X257008Y188228
X256614
X25622
X25752
X257913
X258307
X260315Y187717
X262087Y18874
X262283Y188937
X262638Y188858
X263583Y188976
X264094Y189291
X264646Y190315
X264606Y190709
X265Y190512
X264803Y193071
X263898Y192874
Y193386
X262756
X262756Y192874
X26128Y193996
X261575Y195512
X260531Y195492
X25876
X257992Y196024
X258346Y197244
X256811
X256457Y197795
X256063
X255669
X255157
X254764
X25437
X254803Y199803
X255197
X255591
X256102
X256496
X25689
X259724Y199882
X260039Y198819
X258898
X258898Y198307
X262835Y198268
X263228
Y196811
X262835
X262441Y196772
X261968
X261575Y199724
X260984Y200551
X262205Y201299
X263425Y200394
X264468Y20128
X265433Y196772
X265315Y195709
X258797Y193561
X259331Y191811
Y191063
Y189764
X260354Y190591
X262244Y189606
X260433Y202992
X259842Y20248
X258268Y202992
X267008Y202874
Y20248
Y201968
Y201575
Y201181
X266457Y199173
X26626Y199331
X266063Y199173
X266142Y197992
X26626Y19689
X266181Y196575
X265827Y196772
X26563Y196929
X266732Y197323
X267598Y19689
X26752Y194921
X266929Y194449
X266181Y194409
Y194764
X266024Y195118
X266142Y193425
X266457Y19311
X266693Y192402
X267323Y192283
X268032Y192441
X268701Y192402
X269094Y192323
X268976Y192677
X269331Y191614
X269567Y190669
X269817Y190419
X267913Y190236
X267677Y190551
X267441Y190906
X267913Y193543
X267756Y193898
X268819Y194921
X270236Y197559
X270433Y197717
X27063Y197559
X270197Y198268
Y198661
Y199055
Y199567
Y199961
Y200354
X268504Y199724
X26815Y198937
X272559Y199252
X272953
X273346
Y2
X272953
X272559
Y200748
X272953Y200748
X273346Y200748
X275669Y200591
Y200197
Y199803
X275082Y199176
X274803Y198898
X274525Y198619
X274646Y196024
X275039
X274252
X274331Y195512
X274724
X273937
X273937Y194488
X273543
X27315
X272992Y193819
X273386
X27378
X274252
X274646
X275039
X275197Y194488
X274803
X274409
X275669Y192717
X275866Y192559
X276063Y192717
X275945Y19063
X275551
X276339
X27622Y189252
X276614
X275827
X275315
X274921
X274528
X274134Y188622
X273071
X272835Y188032
X272441
X272047
X272008Y190669
X272402
X272795
X27126Y192283
X271968Y196496
X272556Y196611
X272835Y19689
X273113Y197168
X272244Y197244
X279921Y195669
X280315
X280709
X280472Y193051
X280197Y190866
X279291Y190906
Y191299
Y191693
X27815Y191654
Y192047
Y192441
X280984Y189488
X280512Y187953
X276063Y188032
X275669
X275276
X269252Y187795
X268858
X268465
Y188189
Y188543
X268858Y188189
X280276Y198543
X280669
X281063
Y199291
X280669
X280276
Y200039
X280669Y200039
X281063Y200039
X281496Y194803
X283346Y195591
X28374
X284134
X284646
X285039
X285433
X285276Y192874
Y19248
Y192087
X285433Y190709
X285039
X284646
X284134
X28374
X283346
X281496Y189764
X285315Y187953
Y187559
X276968Y20315
Y203543
Y203937
X273032Y20378
X272638
X272244
X271732
X271339
X270945
X267008Y203268
X263032Y203386
X262874Y203583
X263032Y20378
X260827Y204134
X260433
X260039
X259528
X259134
X25874
T03
X256346Y200689
X255346
X254346
X253346
Y203689
X254346
X255346
X256346
T04
X277471Y184154
X278481Y183144
X276451Y183134
T06
X277955Y185239
X276955
X255917Y177163
X254917
X277953Y195079
Y196079
Y197079
Y198079
Y199079
Y200079
T07
X269932Y186516
X268012
X268209Y201165
Y202165
X270079
Y201165
X274016Y201559
Y202559
X275984Y202559
Y201559
X277953Y201559
Y202559
Y203559
X275984Y203559
X274016Y203559
X270079Y203165
X268209
T08
X283917Y187106
X282028Y185925
X282687Y184941
X285295Y183957
X283917Y182185
X280935Y182303
X280935Y187224
X248327Y188976
X280935Y192146
X282028Y190846
X282687Y189862
X283917Y192028
X285295Y193799
X282687Y194783
X282028Y195768
X285295Y188878
T09
X249327Y189976
Y187976
X247327
Y189976
T10
X280315Y175197
X249606
Y202756
X280315
T11
X279958Y179072
X278543Y180486
Y177657
X277129Y179072
M30
